{"glyphs":{"0":{"ha":758,"x_min":96,"x_max":664,"o":"m 201 267 q 247 134 201 186 q 379 82 293 82 q 511 134 465 82 q 557 267 557 186 l 557 646 q 511 778 557 726 q 379 831 465 831 q 247 778 293 831 q 201 646 201 726 l 201 267 m 664 269 q 643 151 664 204 q 585 62 622 99 q 494 6 547 25 q 379 -14 442 -14 q 265 6 317 -14 q 175 62 213 25 q 117 151 138 99 q 96 269 96 204 l 96 643 q 116 761 96 708 q 173 851 136 814 q 262 907 210 888 q 379 926 314 926 q 494 907 442 926 q 585 851 547 888 q 643 761 622 814 q 664 643 664 708 l 664 269 z "},"1":{"ha":550,"x_min":63,"x_max":513,"o":"m 63 864 q 76 899 63 885 q 108 913 89 913 l 294 913 q 328 900 315 913 q 340 867 340 888 l 340 94 l 468 94 q 500 80 488 94 q 513 46 513 65 q 500 13 513 26 q 468 0 488 0 l 107 0 q 75 13 88 0 q 63 46 63 26 q 75 81 63 67 q 107 94 88 94 l 235 94 l 235 818 l 108 818 q 76 831 89 818 q 63 864 63 844 z "},"2":{"ha":714,"x_min":76,"x_max":644,"o":"m 599 99 q 632 83 619 99 q 644 49 644 68 q 632 14 644 28 q 599 0 619 0 l 121 0 q 89 13 101 0 q 76 46 76 25 l 76 51 q 120 242 76 161 q 268 396 164 324 l 411 494 q 495 577 464 531 q 526 686 526 624 q 483 791 526 751 q 356 831 440 831 q 230 790 274 831 q 182 681 186 749 q 167 649 181 660 q 132 639 153 639 q 94 653 108 639 q 82 688 81 667 q 105 787 83 743 q 163 862 126 831 q 251 910 200 893 q 360 926 301 926 q 473 910 422 926 q 560 863 524 894 q 616 788 596 832 q 636 688 636 743 q 597 542 636 606 q 482 426 557 478 l 311 308 q 249 253 272 282 q 213 197 226 225 q 196 144 200 169 q 190 99 192 119 l 599 99 l 599 99 z "},"3":{"ha":722,"x_min":74,"x_max":643,"o":"m 268 475 q 281 506 268 494 q 311 518 293 518 l 353 518 q 431 531 399 518 q 483 565 463 543 q 511 615 503 586 q 519 678 519 644 q 477 788 519 746 q 351 831 435 831 q 232 792 272 831 q 185 692 192 754 q 169 660 182 672 q 133 647 156 647 q 97 662 111 647 q 83 699 83 676 q 90 753 83 725 q 183 879 114 832 q 354 926 253 926 q 467 909 417 926 q 552 860 517 892 q 607 785 588 829 q 626 686 626 740 q 597 558 626 611 q 507 476 567 504 q 608 388 574 447 q 643 246 643 329 q 622 138 643 186 q 564 56 601 90 q 474 4 526 22 q 357 -14 421 -14 q 160 47 233 -14 q 76 207 88 107 q 89 249 74 235 q 126 264 104 264 q 161 253 147 264 q 178 219 175 242 q 227 120 183 161 q 354 79 271 79 q 488 127 443 79 q 533 257 533 175 q 524 320 533 289 q 492 376 514 351 q 436 417 471 401 q 353 432 401 432 l 311 432 q 281 444 293 432 q 268 475 268 456 z "},"4":{"ha":740,"x_min":40,"x_max":693,"o":"m 513 921 q 567 900 549 921 q 585 856 585 879 l 585 308 l 649 308 q 681 294 668 308 q 693 261 693 281 q 681 228 693 242 q 649 215 668 215 l 585 215 l 585 44 q 570 7 585 21 q 532 -7 556 -7 q 494 7 508 -7 q 479 44 479 21 l 479 215 l 99 215 q 57 230 74 215 q 40 271 40 244 q 51 317 40 296 q 76 357 63 338 l 418 867 q 452 903 432 886 q 513 921 472 921 m 479 308 l 479 793 l 153 308 l 479 308 z "},"5":{"ha":711,"x_min":79,"x_max":643,"o":"m 610 865 q 597 831 610 844 q 565 818 585 818 l 208 818 l 208 511 q 278 544 238 531 q 374 558 318 558 q 486 538 436 558 q 571 481 536 518 q 624 392 606 444 q 643 278 643 340 q 622 156 643 210 q 564 64 601 101 q 474 6 526 26 q 358 -14 422 -14 q 168 40 242 -14 q 82 182 94 93 q 92 224 79 206 q 132 243 104 243 q 176 204 169 243 q 228 115 185 151 q 356 79 272 79 q 490 133 444 79 q 535 278 535 186 q 526 349 535 315 q 496 410 517 383 q 442 452 475 436 q 363 468 410 468 q 279 457 311 468 q 219 428 247 446 q 194 414 208 421 q 161 407 181 407 q 123 420 138 407 q 108 457 108 433 l 108 864 q 122 899 108 886 q 157 913 135 913 l 565 913 q 597 899 585 913 q 610 865 610 885 z "},"6":{"ha":738,"x_min":94,"x_max":663,"o":"m 663 265 q 641 147 663 199 q 581 60 619 96 q 490 5 543 24 q 375 -14 438 -14 q 260 7 313 -14 q 172 67 208 28 q 115 162 135 106 q 94 289 94 218 l 94 650 q 115 765 94 714 q 172 852 135 817 q 260 907 208 888 q 378 926 313 926 q 564 869 492 926 q 647 713 636 813 q 638 672 651 690 q 599 653 625 653 q 549 693 556 653 q 502 793 546 753 q 379 833 458 833 q 246 785 292 833 q 200 660 200 736 l 200 468 q 280 521 232 499 q 394 543 328 543 q 507 522 457 543 q 592 465 557 501 q 644 377 626 428 q 663 265 663 326 m 381 451 q 265 424 307 451 q 200 365 224 396 l 200 286 q 246 135 200 193 q 378 78 292 78 q 508 128 464 78 q 553 260 553 179 q 544 331 553 297 q 514 392 535 365 q 460 435 493 419 q 381 451 428 451 z "},"7":{"ha":625,"x_min":42,"x_max":585,"o":"m 268 26 q 249 2 261 11 q 217 -7 236 -7 q 172 16 185 -7 q 169 67 158 39 l 465 818 l 88 818 q 54 831 67 818 q 42 865 42 844 q 54 899 42 886 q 88 913 67 913 l 528 913 q 569 901 554 913 q 585 864 585 889 q 581 835 585 849 q 569 803 576 821 l 268 26 z "},"8":{"ha":732,"x_min":79,"x_max":654,"o":"m 638 679 q 605 552 638 604 q 517 474 572 500 q 617 389 579 446 q 654 249 654 332 q 633 140 654 189 q 574 58 613 92 q 483 5 536 24 q 367 -14 431 -14 q 250 5 303 -14 q 159 58 197 24 q 100 140 121 92 q 79 249 79 189 q 116 389 79 332 q 215 474 153 446 q 127 553 160 500 q 94 679 94 606 q 114 781 94 735 q 169 858 133 826 q 256 908 206 890 q 367 926 306 926 q 476 908 426 926 q 563 858 526 890 q 618 781 599 826 q 638 679 638 735 m 188 253 q 233 125 188 175 q 367 75 279 75 q 500 125 454 75 q 546 253 546 175 q 535 322 546 290 q 503 378 525 354 q 447 415 481 401 q 367 429 414 429 q 285 415 319 429 q 230 378 251 401 q 198 322 208 354 q 188 253 188 290 m 200 675 q 239 559 200 606 q 367 513 278 513 q 493 559 454 513 q 532 675 532 606 q 489 790 532 746 q 367 835 446 835 q 242 790 285 835 q 200 675 200 746 z "},"9":{"ha":738,"x_min":75,"x_max":643,"o":"m 75 647 q 97 765 75 714 q 156 853 118 817 q 247 908 194 889 q 363 926 300 926 q 477 906 425 926 q 566 844 529 885 q 623 747 603 804 q 643 617 643 689 l 643 263 q 623 147 643 199 q 566 60 603 96 q 476 6 529 25 q 360 -14 424 -14 q 174 43 246 -14 q 90 200 101 100 q 101 241 88 222 q 140 260 114 260 q 173 249 160 260 q 189 219 186 239 q 238 119 196 158 q 358 79 279 79 q 492 128 446 79 q 538 254 538 176 l 538 443 q 458 391 506 413 q 343 369 410 369 q 231 390 281 369 q 146 448 181 411 q 93 535 111 485 q 75 647 75 586 m 357 461 q 472 489 429 461 q 538 547 514 517 l 538 619 q 526 705 538 665 q 491 773 514 744 q 435 818 468 801 q 360 835 403 835 q 229 784 274 835 q 185 653 185 733 q 194 581 185 615 q 224 520 203 547 q 277 477 244 493 q 357 461 310 461 z "},"\u0000":{"ha":0,"x_min":0,"x_max":0,"o":""},"\r":{"ha":294,"x_min":0,"x_max":0,"o":""}," ":{"ha":294,"x_min":0,"x_max":0,"o":""},"!":{"ha":329,"x_min":94,"x_max":235,"o":"m 199 257 q 164 226 196 226 q 131 257 133 226 l 111 679 l 111 867 q 126 905 111 890 q 164 919 140 919 q 203 905 188 919 q 218 867 218 890 l 218 679 l 199 257 m 94 56 q 115 106 94 86 q 164 126 136 126 q 215 106 194 126 q 235 56 235 86 q 215 6 235 26 q 164 -14 194 -14 q 115 6 136 -14 q 94 56 94 26 z "},"\"":{"ha":444,"x_min":88,"x_max":357,"o":"m 136 588 q 107 614 110 588 q 92 728 97 676 q 88 815 88 781 l 88 871 q 101 906 88 893 q 136 919 115 919 q 173 906 158 919 q 188 871 188 893 l 188 815 q 183 728 188 781 q 168 614 178 676 q 136 588 164 588 m 306 588 q 276 614 279 588 q 262 728 267 676 q 257 815 257 781 l 257 871 q 271 906 257 893 q 306 919 285 919 q 343 906 329 919 q 357 871 357 893 l 357 815 q 352 728 357 781 q 338 614 347 676 q 306 588 333 588 z "},"#":{"ha":907,"x_min":57,"x_max":850,"o":"m 572 32 q 528 -7 565 -7 q 497 6 508 -7 q 488 39 485 18 l 524 233 l 300 233 l 263 32 q 219 -7 256 -7 q 188 6 200 -7 q 179 39 175 18 l 214 233 l 94 233 q 67 244 76 233 q 57 272 57 256 q 67 300 57 289 q 94 311 76 311 l 229 311 l 283 601 l 136 601 q 108 612 118 601 q 99 639 99 622 q 108 667 99 656 q 136 679 118 679 l 297 679 l 335 881 q 379 919 342 919 q 410 907 399 919 q 418 874 422 894 l 383 679 l 607 679 l 643 881 q 688 919 650 919 q 719 907 707 919 q 728 874 731 894 l 692 679 l 813 679 q 840 668 829 679 q 850 640 850 657 q 840 612 850 622 q 813 601 829 601 l 676 601 l 624 311 l 771 311 q 798 300 788 311 q 808 272 808 289 q 798 244 808 256 q 771 233 788 233 l 608 233 l 572 32 m 315 311 l 539 311 l 592 601 l 368 601 l 315 311 z "},"$":{"ha":693,"x_min":63,"x_max":629,"o":"m 561 649 q 528 661 540 649 q 511 693 515 674 q 463 797 500 756 q 346 838 425 838 q 224 799 267 838 q 181 700 181 760 q 206 620 181 654 q 274 568 232 586 l 421 506 q 494 471 457 490 q 561 422 531 451 q 610 351 592 393 q 629 251 629 310 q 563 69 629 139 q 388 -11 497 0 l 388 -115 q 376 -146 388 -135 q 344 -157 364 -157 q 313 -146 325 -157 q 301 -115 301 -135 l 301 -11 q 135 60 197 0 q 65 211 74 119 q 77 253 63 236 q 115 269 92 269 q 149 258 135 269 q 165 224 163 246 q 217 118 172 160 q 346 76 263 76 q 480 122 433 76 q 526 239 526 168 q 515 303 526 276 q 485 349 504 329 q 440 382 465 368 q 385 408 414 396 l 257 463 q 188 498 221 478 q 131 546 156 518 q 92 610 107 574 q 78 692 78 646 q 139 848 78 785 q 301 924 200 911 l 301 1028 q 313 1058 301 1047 q 344 1069 325 1069 q 376 1058 364 1069 q 388 1028 388 1047 l 388 924 q 473 901 433 919 q 543 853 513 883 q 591 785 574 824 q 611 700 608 746 q 597 662 613 675 q 561 649 581 649 z "},"%":{"ha":871,"x_min":71,"x_max":799,"o":"m 149 607 q 169 547 149 571 q 229 522 189 522 q 290 547 269 522 q 310 607 310 571 l 310 775 q 290 835 310 811 q 229 860 269 860 q 169 835 189 860 q 149 775 149 811 l 149 607 m 388 608 q 344 497 388 539 q 229 456 301 456 q 113 497 156 456 q 71 608 71 539 l 71 774 q 113 885 71 843 q 229 926 156 926 q 344 885 301 926 q 388 774 388 843 l 388 608 m 560 138 q 581 77 560 101 q 642 53 601 53 q 701 77 681 53 q 722 138 722 101 l 722 306 q 701 366 722 342 q 642 390 681 390 q 581 366 601 390 q 560 306 560 342 l 560 138 m 799 139 q 756 28 799 69 q 642 -14 713 -14 q 526 28 568 -14 q 483 139 483 69 l 483 304 q 526 415 483 374 q 642 457 568 457 q 756 415 713 457 q 799 304 799 374 l 799 139 m 215 11 q 182 -7 206 -7 q 155 4 167 -7 q 143 31 143 15 q 150 54 143 40 l 393 457 l 654 901 q 667 915 658 911 q 688 919 676 919 q 715 908 703 919 q 726 882 726 897 q 719 858 726 872 l 476 456 l 215 11 z "},"&":{"ha":804,"x_min":71,"x_max":758,"o":"m 758 475 q 748 446 758 457 q 718 435 738 435 l 660 435 l 660 264 q 639 150 660 201 q 581 62 618 99 q 490 6 543 25 q 371 -14 436 -14 q 247 4 303 -14 q 153 56 192 22 q 92 139 114 90 q 71 247 71 188 q 111 390 71 331 q 229 478 151 450 q 136 560 167 507 q 106 685 106 613 q 124 783 106 739 q 178 860 143 828 q 261 909 213 892 q 368 926 310 926 q 544 868 478 926 q 622 717 611 810 q 613 676 625 693 q 574 658 600 658 q 540 670 553 658 q 524 701 526 682 q 479 795 514 756 q 369 835 444 835 q 251 792 292 835 q 211 679 211 749 q 221 615 211 644 q 251 565 231 586 q 307 531 272 543 q 392 518 342 518 l 718 518 q 748 506 738 518 q 758 475 758 494 m 374 76 q 512 128 464 76 q 560 261 560 181 l 560 435 l 388 435 q 291 419 331 435 q 226 379 251 404 q 190 322 201 354 q 179 257 179 290 q 228 125 179 174 q 374 76 278 76 z "},"'":{"ha":278,"x_min":88,"x_max":190,"o":"m 139 588 q 107 614 110 588 q 92 728 97 676 q 88 815 88 781 l 88 871 q 101 906 88 893 q 139 919 115 919 q 176 906 161 919 q 190 871 190 893 l 190 815 q 185 728 190 781 q 171 614 181 676 q 139 588 167 588 z "},"(":{"ha":413,"x_min":100,"x_max":364,"o":"m 100 818 q 156 992 100 929 q 313 1061 211 1054 q 349 1051 333 1064 q 364 1015 364 1038 q 353 983 364 996 q 325 968 342 971 q 232 924 258 961 q 206 824 206 886 l 206 85 q 232 -15 206 22 q 325 -60 258 -53 q 353 -75 342 -62 q 364 -107 364 -87 q 349 -142 364 -129 q 313 -153 333 -156 q 156 -83 211 -146 q 100 90 100 -21 l 100 818 z "},")":{"ha":413,"x_min":49,"x_max":313,"o":"m 313 90 q 257 -83 313 -21 q 100 -153 201 -146 q 64 -142 79 -156 q 49 -107 49 -129 q 60 -75 49 -87 q 88 -60 71 -62 q 181 -15 154 -53 q 207 85 207 22 l 207 824 q 181 924 207 886 q 88 968 154 961 q 60 983 71 971 q 49 1015 49 996 q 64 1051 49 1038 q 100 1061 79 1064 q 257 992 201 1054 q 313 818 313 929 l 313 90 z "},"*":{"ha":550,"x_min":65,"x_max":483,"o":"m 314 881 q 311 849 314 869 q 304 806 308 829 q 296 759 300 782 q 288 721 292 736 q 316 747 299 731 q 351 778 333 763 q 385 808 369 794 q 410 826 401 821 q 440 834 425 838 q 465 815 456 831 q 449 761 483 783 q 422 747 440 756 q 380 730 403 739 q 335 713 357 721 q 297 700 313 706 q 334 686 311 694 q 379 669 357 678 q 421 651 401 660 q 449 638 440 643 q 469 613 465 628 q 464 583 474 599 q 440 564 454 568 q 410 571 425 560 q 385 590 401 576 q 352 618 369 603 q 317 649 335 633 q 289 676 300 665 q 296 638 292 661 q 304 592 300 615 q 311 548 308 568 q 314 518 314 528 q 275 478 314 478 q 238 518 238 478 q 240 548 238 528 q 247 591 243 568 q 256 638 251 614 q 263 676 260 661 q 234 650 251 665 q 199 619 217 635 q 165 590 182 603 q 140 571 149 576 q 86 583 107 550 q 100 638 65 615 q 128 651 108 643 q 170 669 147 660 q 215 686 193 678 q 251 700 236 694 q 215 713 238 704 q 170 730 193 721 q 128 747 147 739 q 100 761 108 756 q 80 786 83 772 q 85 815 76 800 q 109 834 94 831 q 140 826 124 838 q 165 808 149 821 q 199 779 181 794 q 234 748 217 764 q 263 721 251 732 q 256 758 260 735 q 247 805 251 781 q 240 849 243 829 q 238 881 238 869 q 275 921 238 921 q 314 881 314 921 z "},"+":{"ha":665,"x_min":61,"x_max":604,"o":"m 381 501 l 561 501 q 592 488 581 501 q 604 454 604 475 q 592 422 604 435 q 561 410 581 410 l 381 410 l 381 249 q 367 215 381 228 q 332 201 354 201 q 297 215 311 201 q 283 249 283 228 l 283 410 l 104 410 q 73 422 85 410 q 61 454 61 435 q 73 488 61 475 q 104 501 85 501 l 283 501 l 283 661 q 297 697 283 683 q 332 710 311 710 q 367 697 353 710 q 381 661 381 683 l 381 501 z "},",":{"ha":308,"x_min":56,"x_max":222,"o":"m 135 -108 q 120 -131 128 -124 q 97 -139 113 -139 q 67 -126 78 -139 q 61 -92 56 -112 l 100 72 q 119 111 106 96 q 156 126 132 126 q 203 103 185 126 q 204 44 222 81 l 135 -108 z "},"-":{"ha":515,"x_min":88,"x_max":428,"o":"m 88 364 q 100 397 88 383 q 132 410 113 410 l 383 410 q 415 397 403 410 q 428 364 428 383 q 415 331 428 343 q 383 318 403 318 l 132 318 q 100 331 113 318 q 88 364 88 343 z "},".":{"ha":306,"x_min":83,"x_max":224,"o":"m 83 56 q 103 106 83 86 q 153 126 124 126 q 203 106 182 126 q 224 56 224 86 q 203 6 224 26 q 153 -14 182 -14 q 103 6 124 -14 q 83 56 83 26 z "},"/":{"ha":581,"x_min":51,"x_max":529,"o":"m 144 -126 q 99 -161 133 -161 q 65 -147 79 -161 q 51 -112 51 -133 q 53 -102 51 -108 q 56 -92 54 -96 l 435 1036 q 483 1071 446 1071 q 516 1057 503 1071 q 529 1022 529 1043 q 528 1012 529 1018 q 525 1001 526 1006 l 144 -126 z "},":":{"ha":329,"x_min":94,"x_max":235,"o":"m 94 56 q 115 106 94 86 q 164 126 135 126 q 214 106 193 126 q 235 56 235 86 q 214 6 235 26 q 164 -14 193 -14 q 115 6 135 -14 q 94 56 94 26 m 94 622 q 115 672 94 651 q 164 693 135 693 q 214 672 193 693 q 235 622 235 651 q 214 573 235 593 q 164 553 193 553 q 115 573 135 553 q 94 622 94 593 z "},";":{"ha":354,"x_min":78,"x_max":256,"o":"m 115 622 q 135 672 115 651 q 185 693 156 693 q 235 672 214 693 q 256 622 256 651 q 235 573 256 593 q 185 553 214 553 q 135 573 156 553 q 115 622 115 593 m 157 -108 q 142 -131 150 -124 q 118 -139 133 -139 q 88 -126 99 -139 q 82 -92 78 -112 l 121 72 q 141 111 128 96 q 178 126 154 126 q 225 103 207 126 q 226 44 243 81 l 157 -108 z "},"<":{"ha":657,"x_min":57,"x_max":569,"o":"m 100 396 q 57 453 57 411 q 100 511 57 493 l 507 674 q 524 676 515 676 q 556 664 543 676 q 569 632 569 651 q 561 607 569 617 q 540 592 553 597 l 186 456 l 540 317 q 561 301 553 313 q 569 275 569 290 q 556 242 569 256 q 524 229 543 229 q 507 232 515 229 l 100 396 z "},"=":{"ha":724,"x_min":92,"x_max":632,"o":"m 92 589 q 104 623 92 610 q 136 636 117 636 l 588 636 q 619 622 607 636 q 632 589 632 608 q 619 557 632 569 q 588 544 607 544 l 136 544 q 104 557 117 544 q 92 589 92 569 m 92 324 q 104 358 92 344 q 136 371 117 371 l 588 371 q 619 358 607 371 q 632 324 632 344 q 619 292 632 304 q 588 279 607 279 l 136 279 q 104 292 117 279 q 92 324 92 304 z "},">":{"ha":657,"x_min":88,"x_max":600,"o":"m 557 507 q 600 450 600 492 q 557 392 600 410 l 150 229 q 133 226 142 226 q 101 239 114 226 q 88 271 88 251 q 96 296 88 286 q 117 311 104 306 l 471 447 l 117 586 q 96 601 104 590 q 88 628 88 613 q 101 660 88 647 q 133 674 114 674 q 150 671 142 674 l 557 507 z "},"?":{"ha":660,"x_min":56,"x_max":606,"o":"m 313 231 q 283 242 294 231 q 268 272 271 254 q 271 352 261 317 q 300 417 281 388 q 345 474 319 447 q 399 528 371 500 q 433 562 415 544 q 465 599 451 579 q 488 643 479 619 q 497 694 497 667 q 455 794 497 757 q 333 831 413 831 q 204 789 249 831 q 157 681 160 747 q 142 647 156 660 q 107 635 128 635 q 70 648 85 635 q 56 685 56 661 q 77 785 56 740 q 135 860 99 829 q 223 909 172 892 q 335 926 274 926 q 444 910 394 926 q 531 865 494 894 q 586 792 567 835 q 606 696 606 749 q 594 628 606 660 q 565 569 583 597 q 522 515 546 540 q 472 464 499 489 q 431 424 450 443 q 396 383 411 404 q 370 333 381 361 q 357 267 360 306 q 342 241 356 251 q 313 231 329 231 m 243 56 q 263 105 243 85 q 313 125 283 125 q 362 105 342 125 q 382 56 382 85 q 362 6 382 26 q 313 -14 342 -14 q 263 6 283 -14 q 243 56 243 26 z "},"@":{"ha":1107,"x_min":82,"x_max":1036,"o":"m 511 128 q 597 163 561 128 q 640 249 632 197 l 665 393 q 647 479 674 444 q 557 514 619 514 q 480 478 508 514 q 442 390 451 443 l 417 251 q 429 163 407 199 q 511 128 451 128 m 719 208 q 717 140 713 168 q 736 95 722 113 q 773 70 750 78 q 826 63 796 63 q 922 114 896 63 q 949 250 949 165 l 949 444 q 922 580 949 519 q 844 683 894 640 q 721 749 793 725 q 560 772 649 772 q 397 749 469 772 q 275 683 325 725 q 198 580 225 640 q 171 444 171 519 l 171 199 q 198 63 171 124 q 275 -40 225 3 q 397 -106 325 -82 q 560 -129 469 -129 l 646 -129 q 676 -141 665 -129 q 686 -171 686 -153 q 676 -201 686 -190 q 646 -212 665 -212 l 560 -212 q 356 -183 444 -212 q 206 -97 267 -153 q 114 38 146 -40 q 82 215 82 117 l 82 428 q 113 604 82 525 q 203 740 143 683 q 353 826 264 796 q 560 856 442 856 q 763 826 674 856 q 912 740 851 796 q 1004 604 972 683 q 1036 428 1036 525 l 1036 267 q 1020 137 1036 190 q 976 50 1004 83 q 908 1 947 17 q 824 -14 869 -14 q 691 24 742 -14 q 636 136 640 61 q 571 76 608 97 q 488 54 533 54 q 356 110 397 54 q 331 258 314 167 l 354 389 q 419 536 371 483 q 547 589 468 589 q 636 569 599 589 q 693 513 674 549 l 710 563 q 743 585 718 585 q 769 575 758 585 q 778 546 781 565 l 719 208 z "},"A":{"ha":761,"x_min":46,"x_max":715,"o":"m 231 307 l 525 307 l 376 769 l 231 307 m 711 65 q 715 46 715 54 q 701 8 715 24 q 663 -7 686 -7 q 611 33 625 -7 l 553 215 l 201 215 l 143 29 q 126 3 139 14 q 93 -7 113 -7 q 59 8 72 -7 q 46 43 46 22 q 49 58 46 47 l 313 868 q 381 919 331 919 q 447 868 429 919 l 711 65 z "},"B":{"ha":775,"x_min":115,"x_max":708,"o":"m 115 861 q 129 899 115 885 q 167 913 143 913 l 408 913 q 519 896 468 913 q 608 848 571 879 q 665 774 644 817 q 686 676 686 731 q 650 549 686 600 q 549 472 614 497 l 549 471 q 666 392 624 447 q 708 250 708 338 q 688 147 708 193 q 631 69 667 101 q 544 18 594 36 q 433 0 493 0 l 167 0 q 129 14 143 0 q 115 51 115 28 l 115 861 m 221 422 l 221 89 l 421 89 q 551 134 504 89 q 599 254 599 179 q 553 377 599 332 q 426 422 507 422 l 221 422 m 221 824 l 221 513 l 404 513 q 531 555 485 513 q 578 672 578 597 q 530 783 578 743 q 399 824 482 824 l 221 824 z "},"C":{"ha":758,"x_min":90,"x_max":683,"o":"m 631 300 q 669 283 654 300 q 682 242 683 265 q 657 135 679 182 q 596 54 635 88 q 504 3 557 21 q 389 -14 451 -14 q 267 6 322 -14 q 173 65 213 26 q 112 157 133 103 q 90 278 90 211 l 90 635 q 111 756 90 701 q 171 848 132 810 q 265 906 210 886 q 389 926 321 926 q 504 909 451 926 q 595 859 557 892 q 656 780 633 826 q 682 675 678 733 q 669 636 683 651 q 631 621 656 621 q 581 663 585 621 q 526 784 574 738 q 389 831 479 831 q 247 776 297 831 q 196 638 196 721 l 196 275 q 247 137 196 192 q 389 82 297 82 q 527 129 478 82 q 581 254 576 176 q 595 288 582 275 q 631 300 608 300 z "},"D":{"ha":800,"x_min":115,"x_max":711,"o":"m 404 913 q 531 892 474 913 q 628 832 588 871 q 690 738 668 793 q 711 614 711 682 l 711 299 q 690 174 711 229 q 628 81 668 119 q 531 21 588 42 q 404 0 474 0 l 167 0 q 129 14 143 0 q 115 51 115 28 l 115 861 q 129 899 115 885 q 167 913 143 913 l 404 913 m 221 817 l 221 96 l 404 96 q 553 152 501 96 q 606 296 606 208 l 606 617 q 553 760 606 704 q 404 817 501 817 l 221 817 z "},"E":{"ha":714,"x_min":115,"x_max":654,"o":"m 221 419 l 221 96 l 607 96 q 642 82 629 96 q 654 47 654 68 q 642 13 654 26 q 607 0 629 0 l 167 0 q 129 14 143 0 q 115 51 115 28 l 115 861 q 129 899 115 885 q 167 913 143 913 l 596 913 q 630 899 617 913 q 643 865 643 886 q 630 830 643 843 q 596 817 617 817 l 221 817 l 221 514 l 563 514 q 596 500 583 514 q 608 465 608 486 q 596 432 608 444 q 563 419 583 419 l 221 419 z "},"F":{"ha":692,"x_min":115,"x_max":643,"o":"m 221 394 l 221 44 q 206 7 221 21 q 168 -7 192 -7 q 130 7 144 -7 q 115 44 115 21 l 115 861 q 129 899 115 885 q 167 913 143 913 l 596 913 q 630 899 617 913 q 643 864 643 885 q 630 830 643 843 q 596 817 617 817 l 221 817 l 221 489 l 563 489 q 596 475 583 489 q 608 440 608 461 q 596 407 608 419 q 563 394 583 394 l 221 394 z "},"G":{"ha":765,"x_min":90,"x_max":683,"o":"m 407 403 q 419 434 407 422 q 450 446 431 446 l 639 446 q 671 433 658 446 q 683 400 683 421 l 683 263 q 662 147 683 199 q 602 60 640 96 q 510 6 564 25 q 390 -14 456 -14 q 269 6 324 -14 q 174 65 214 26 q 113 157 135 103 q 90 278 90 211 l 90 635 q 112 756 90 701 q 173 848 133 810 q 267 906 213 886 q 390 926 322 926 q 596 863 517 926 q 682 685 675 799 q 670 649 683 664 q 632 633 657 633 q 583 674 588 633 q 528 788 575 744 q 390 831 481 831 q 247 776 297 831 q 196 638 196 721 l 196 275 q 247 137 196 192 q 390 82 297 82 q 535 132 485 82 q 585 260 585 182 l 585 360 l 450 360 q 419 372 431 360 q 407 403 407 383 z "},"H":{"ha":817,"x_min":115,"x_max":701,"o":"m 701 44 q 686 7 701 21 q 647 -7 671 -7 q 609 7 624 -7 q 594 44 594 21 l 594 418 l 221 418 l 221 44 q 206 7 221 21 q 168 -7 192 -7 q 130 7 144 -7 q 115 44 115 21 l 115 868 q 130 906 115 892 q 168 919 144 919 q 206 906 192 919 q 221 868 221 892 l 221 514 l 594 514 l 594 868 q 609 906 594 892 q 647 919 624 919 q 686 906 671 919 q 701 868 701 892 l 701 44 z "},"I":{"ha":336,"x_min":115,"x_max":221,"o":"m 221 44 q 206 7 221 21 q 168 -7 192 -7 q 130 7 144 -7 q 115 44 115 21 l 115 868 q 130 906 115 892 q 168 919 144 919 q 206 906 192 919 q 221 868 221 892 l 221 44 z "},"J":{"ha":676,"x_min":35,"x_max":567,"o":"m 86 299 q 124 284 110 299 q 139 242 138 269 q 183 127 140 172 q 300 82 225 82 q 420 129 379 82 q 461 247 461 176 l 461 868 q 476 906 461 892 q 514 919 490 919 q 552 906 538 919 q 567 868 567 892 l 567 250 q 547 140 567 189 q 492 57 528 92 q 408 4 457 22 q 300 -14 360 -14 q 193 4 242 -14 q 109 56 144 22 q 54 138 74 90 q 35 243 35 185 q 49 283 35 268 q 86 299 63 299 z "},"K":{"ha":751,"x_min":115,"x_max":703,"o":"m 449 540 l 696 72 q 701 60 699 65 q 703 46 703 54 q 688 8 703 24 q 649 -7 672 -7 q 618 3 631 -7 q 599 26 606 14 l 378 451 l 221 243 l 221 44 q 206 7 221 21 q 168 -7 192 -7 q 130 7 144 -7 q 115 44 115 21 l 115 868 q 130 906 115 892 q 168 919 144 919 q 206 906 192 919 q 221 868 221 892 l 221 400 l 594 900 q 633 919 610 919 q 669 906 656 919 q 683 869 683 892 q 676 844 683 858 l 449 540 z "},"L":{"ha":642,"x_min":115,"x_max":626,"o":"m 221 96 l 581 96 q 614 82 601 96 q 626 47 626 68 q 614 13 626 26 q 581 0 601 0 l 167 0 q 129 14 143 0 q 115 51 115 28 l 115 868 q 130 906 115 892 q 168 919 144 919 q 206 906 192 919 q 221 868 221 892 l 221 96 z "},"M":{"ha":893,"x_min":115,"x_max":778,"o":"m 447 439 l 669 882 q 692 912 681 904 q 726 919 704 919 q 764 906 750 919 q 778 868 778 892 l 778 43 q 763 6 778 19 q 725 -7 749 -7 q 689 6 703 -7 q 675 43 675 19 l 675 694 l 488 322 q 472 302 481 310 q 444 294 463 294 q 418 302 428 294 q 401 322 408 310 l 214 696 l 214 40 q 199 6 214 19 q 164 -7 185 -7 q 129 6 143 -7 q 115 40 115 19 l 115 868 q 129 906 115 892 q 167 919 143 919 q 201 912 189 919 q 225 882 214 904 l 447 439 z "},"N":{"ha":813,"x_min":115,"x_max":697,"o":"m 697 44 q 683 7 697 21 q 646 -7 669 -7 q 613 3 625 -7 q 593 28 601 14 l 214 706 l 214 40 q 199 6 214 19 q 164 -7 185 -7 q 129 6 143 -7 q 115 40 115 19 l 115 868 q 131 906 115 892 q 169 919 146 919 q 203 911 192 919 q 226 881 215 903 l 599 218 l 599 872 q 613 906 599 893 q 647 919 626 919 q 683 906 668 919 q 697 872 697 893 l 697 44 z "},"O":{"ha":781,"x_min":90,"x_max":690,"o":"m 196 275 q 247 137 196 192 q 390 82 297 82 q 533 137 483 82 q 583 275 583 192 l 583 638 q 533 776 583 721 q 390 831 483 831 q 247 776 297 831 q 196 638 196 721 l 196 275 m 690 278 q 668 157 690 211 q 606 65 646 103 q 512 6 567 26 q 390 -14 457 -14 q 268 6 324 -14 q 173 65 213 26 q 112 157 133 103 q 90 278 90 211 l 90 635 q 111 756 90 701 q 172 848 132 810 q 266 906 211 886 q 390 926 321 926 q 512 906 457 926 q 606 848 567 886 q 668 756 646 810 q 690 635 690 701 l 690 278 z "},"P":{"ha":756,"x_min":115,"x_max":703,"o":"m 115 861 q 129 899 115 885 q 167 913 143 913 l 394 913 q 518 892 461 913 q 616 833 575 871 q 680 742 657 796 q 703 622 703 689 q 680 501 703 556 q 616 407 657 446 q 518 347 575 368 q 394 326 461 326 l 221 326 l 221 44 q 206 7 221 21 q 168 -7 192 -7 q 130 7 144 -7 q 115 44 115 21 l 115 861 m 221 819 l 221 419 l 388 419 q 539 474 483 419 q 594 621 594 529 q 539 766 594 713 q 388 819 483 819 l 221 819 z "},"Q":{"ha":783,"x_min":90,"x_max":690,"o":"m 196 275 q 247 137 196 192 q 390 82 297 82 q 533 137 483 82 q 583 275 583 192 l 583 638 q 533 776 583 721 q 390 831 483 831 q 247 776 297 831 q 196 638 196 721 l 196 275 m 642 -115 q 650 -144 650 -128 q 635 -183 650 -167 q 596 -199 619 -199 q 551 -174 567 -199 l 439 -10 q 390 -14 415 -14 q 268 6 324 -14 q 173 65 213 26 q 112 157 133 103 q 90 278 90 211 l 90 635 q 111 756 90 701 q 172 848 132 810 q 266 906 211 886 q 390 926 321 926 q 512 906 457 926 q 606 848 567 886 q 668 756 646 810 q 690 635 690 701 l 690 278 q 651 121 690 186 q 543 21 611 56 l 642 -115 z "},"R":{"ha":774,"x_min":115,"x_max":703,"o":"m 221 819 l 221 451 l 388 451 q 539 503 483 451 q 594 639 594 554 q 539 771 594 722 q 388 819 483 819 l 221 819 m 676 67 q 682 46 682 56 q 666 8 682 24 q 628 -7 650 -7 q 599 2 613 -7 q 579 26 586 11 l 428 361 q 409 360 418 361 q 390 360 400 360 l 221 360 l 221 44 q 206 7 221 21 q 168 -7 192 -7 q 130 7 144 -7 q 115 44 115 21 l 115 861 q 129 899 115 885 q 167 913 143 913 l 396 913 q 519 893 463 913 q 616 838 575 874 q 680 753 657 803 q 703 640 703 703 q 657 483 703 549 q 533 386 611 417 l 676 67 z "},"S":{"ha":729,"x_min":65,"x_max":661,"o":"m 592 639 q 559 650 572 639 q 543 681 546 661 q 489 794 533 751 q 363 838 444 838 q 233 799 279 838 q 186 700 186 761 q 216 618 186 651 q 290 567 246 585 l 440 506 q 519 471 479 490 q 590 422 558 451 q 641 351 621 393 q 661 251 661 310 q 640 142 661 190 q 578 58 618 93 q 485 5 539 24 q 364 -14 431 -14 q 159 46 238 -14 q 68 215 81 106 q 78 257 65 239 q 118 275 90 275 q 167 232 163 275 q 222 119 174 163 q 363 76 271 76 q 506 122 456 76 q 557 239 557 168 q 544 303 557 276 q 511 349 532 329 q 462 383 490 368 q 401 410 433 397 l 272 463 q 199 498 233 478 q 140 546 165 518 q 99 610 114 574 q 85 692 85 646 q 105 786 85 743 q 161 860 125 829 q 249 909 197 892 q 363 926 300 926 q 556 866 481 926 q 642 699 632 806 q 631 657 644 675 q 592 639 617 639 z "},"T":{"ha":640,"x_min":19,"x_max":619,"o":"m 19 865 q 33 899 19 886 q 67 913 46 913 l 572 913 q 607 899 594 913 q 619 864 619 885 q 607 830 619 843 q 572 817 594 817 l 372 817 l 372 44 q 358 7 372 21 q 319 -7 343 -7 q 281 7 296 -7 q 267 44 267 21 l 267 817 l 67 817 q 33 831 46 817 q 19 865 19 844 z "},"U":{"ha":804,"x_min":108,"x_max":696,"o":"m 643 919 q 681 906 667 919 q 696 868 696 892 l 696 278 q 674 157 696 211 q 614 65 653 103 q 521 6 575 26 q 401 -14 467 -14 q 282 6 336 -14 q 190 65 228 26 q 130 157 151 103 q 108 278 108 211 l 108 868 q 123 906 108 892 q 161 919 138 919 q 199 906 185 919 q 214 868 214 892 l 214 275 q 263 137 214 192 q 401 82 311 82 q 542 137 493 82 q 590 275 590 192 l 590 868 q 605 906 590 892 q 643 919 619 919 z "},"V":{"ha":707,"x_min":46,"x_max":663,"o":"m 421 44 q 396 7 414 21 q 353 -7 378 -7 q 311 7 329 -7 q 286 44 293 21 l 50 844 q 46 865 46 854 q 62 904 46 889 q 100 919 78 919 q 133 908 119 919 q 151 879 147 897 l 356 167 l 563 881 q 579 908 567 897 q 610 919 592 919 q 647 906 632 919 q 663 869 663 892 q 662 861 663 867 q 658 850 661 856 l 421 44 z "},"W":{"ha":1025,"x_min":54,"x_max":971,"o":"m 778 39 q 758 6 774 18 q 722 -7 743 -7 q 685 6 700 -7 q 665 39 669 18 l 511 722 l 360 39 q 340 6 356 18 q 303 -7 325 -7 q 267 6 282 -7 q 247 39 251 18 l 56 854 q 54 862 54 858 q 54 868 54 865 q 69 906 54 892 q 104 919 83 919 q 138 907 124 919 q 156 875 151 894 l 307 192 l 457 871 q 476 905 461 892 q 513 918 492 918 q 550 905 535 918 q 569 871 565 892 l 721 193 l 872 878 q 890 908 876 897 q 922 919 903 919 q 957 906 943 919 q 971 869 971 892 q 971 863 971 867 q 969 856 971 860 l 778 39 z "},"X":{"ha":681,"x_min":47,"x_max":633,"o":"m 343 551 l 532 894 q 576 919 547 919 q 610 906 596 919 q 625 872 625 892 q 622 858 625 865 q 617 846 619 851 l 403 469 l 625 71 q 631 58 628 65 q 633 43 633 51 q 619 7 633 21 q 582 -7 604 -7 q 536 19 549 -7 l 338 379 l 140 18 q 96 -7 126 -7 q 61 7 75 -7 q 47 40 47 21 q 50 54 47 47 q 56 67 53 61 l 279 463 l 65 842 q 60 854 63 847 q 58 869 58 861 q 72 905 58 890 q 108 919 86 919 q 154 894 139 919 l 343 551 z "},"Y":{"ha":678,"x_min":44,"x_max":638,"o":"m 392 364 l 392 44 q 377 7 392 21 q 339 -7 363 -7 q 301 7 315 -7 q 286 44 286 21 l 286 364 l 50 844 q 44 868 44 854 q 59 904 44 889 q 94 919 74 919 q 140 892 126 919 l 342 468 l 546 893 q 564 914 553 908 q 589 919 575 919 q 622 906 608 919 q 636 876 636 893 q 635 861 638 869 q 629 846 632 853 l 392 364 z "},"Z":{"ha":644,"x_min":47,"x_max":603,"o":"m 539 913 q 572 901 558 913 q 586 871 586 890 q 580 843 586 857 q 567 817 574 829 l 179 94 l 557 94 q 590 81 578 94 q 603 47 603 68 q 590 13 603 25 q 557 0 578 0 l 93 0 q 60 11 74 0 q 47 42 47 22 q 53 70 47 56 q 65 96 58 85 l 453 818 l 106 818 q 72 831 85 818 q 58 865 58 843 q 72 899 58 886 q 106 913 85 913 l 539 913 l 539 913 z "},"[":{"ha":425,"x_min":113,"x_max":375,"o":"m 218 -58 l 328 -58 q 362 -72 349 -58 q 375 -107 375 -86 q 362 -141 375 -128 q 328 -154 349 -154 l 161 -154 q 125 -141 138 -154 q 113 -106 113 -128 l 113 1014 q 125 1049 113 1036 q 161 1063 138 1063 l 328 1063 q 362 1049 349 1063 q 375 1014 375 1035 q 362 980 375 993 q 328 967 349 967 l 218 967 l 218 -58 z "},"\\":{"ha":583,"x_min":51,"x_max":531,"o":"m 56 1001 q 53 1012 54 1006 q 51 1022 51 1018 q 65 1057 51 1043 q 99 1071 79 1071 q 149 1036 138 1071 l 526 -92 q 529 -102 528 -96 q 531 -112 531 -108 q 517 -147 531 -133 q 483 -161 503 -161 q 436 -126 446 -161 l 56 1001 z "},"]":{"ha":425,"x_min":50,"x_max":313,"o":"m 207 967 l 97 967 q 63 980 76 967 q 50 1014 50 993 q 63 1049 50 1035 q 97 1063 76 1063 l 264 1063 q 300 1049 288 1063 q 313 1014 313 1036 l 313 -106 q 300 -141 313 -128 q 264 -154 288 -154 l 97 -154 q 63 -141 76 -154 q 50 -107 50 -128 q 63 -72 50 -86 q 97 -58 76 -58 l 207 -58 l 207 967 z "},"^":{"ha":539,"x_min":81,"x_max":458,"o":"m 268 796 l 164 561 q 122 533 153 533 q 93 545 106 533 q 81 574 81 557 q 86 596 81 582 l 215 882 q 236 909 222 899 q 269 919 250 919 q 303 909 289 919 q 325 882 317 899 l 453 597 q 458 576 458 586 q 445 546 458 558 q 414 533 432 533 q 372 560 385 533 l 268 796 z "},"_":{"ha":961,"x_min":88,"x_max":874,"o":"m 88 -81 q 98 -53 88 -64 q 125 -42 108 -42 l 836 -42 q 863 -53 853 -42 q 874 -81 874 -64 q 863 -108 874 -97 q 836 -119 853 -119 l 125 -119 q 98 -108 108 -119 q 88 -81 88 -97 z "},"`":{"ha":283,"x_min":42,"x_max":247,"o":"m 235 829 q 247 800 247 814 q 238 776 247 786 q 213 767 228 767 q 192 774 201 767 l 58 876 q 42 913 42 893 q 55 947 42 933 q 88 960 68 960 q 122 944 107 960 l 235 829 l 235 829 z "},"a":{"ha":692,"x_min":79,"x_max":592,"o":"m 331 76 q 448 124 406 76 q 490 243 490 172 l 490 435 q 448 554 490 506 q 331 603 406 603 q 219 557 257 603 q 181 446 181 511 l 181 233 q 218 122 181 167 q 331 76 256 76 m 499 78 q 421 10 468 35 q 314 -14 374 -14 q 141 54 203 -14 q 79 238 79 122 l 79 442 q 141 625 79 557 q 314 693 203 693 q 422 669 375 693 q 499 601 468 644 l 506 650 q 522 678 511 669 q 549 686 533 686 q 581 674 569 686 q 592 640 592 661 l 592 39 q 549 -7 592 -7 q 521 1 533 -7 q 506 29 508 8 l 499 78 z "},"b":{"ha":692,"x_min":100,"x_max":613,"o":"m 361 76 q 474 122 436 76 q 511 233 511 167 l 511 446 q 473 557 511 511 q 361 603 435 603 q 244 554 286 603 q 201 435 201 506 l 201 243 q 244 124 201 172 q 361 76 286 76 m 100 894 q 114 932 100 918 q 151 946 128 946 q 188 932 174 946 q 201 894 201 918 l 201 611 q 276 672 232 650 q 378 693 321 693 q 551 625 489 693 q 613 442 613 557 l 613 238 q 551 54 613 122 q 378 -14 489 -14 q 270 10 317 -14 q 193 78 224 35 l 185 29 q 169 1 181 8 q 143 -7 158 -7 q 100 39 100 -7 l 100 894 z "},"c":{"ha":657,"x_min":76,"x_max":590,"o":"m 540 243 q 577 226 564 243 q 588 188 590 210 q 508 40 576 93 q 336 -14 440 -14 q 230 4 278 -14 q 148 57 182 22 q 95 140 114 92 q 76 250 76 189 l 76 429 q 147 622 76 551 q 336 693 218 693 q 507 640 439 693 q 585 499 575 586 q 576 459 588 476 q 539 442 564 442 q 492 481 497 442 q 444 570 482 536 q 336 604 406 604 q 218 556 258 604 q 178 436 178 508 l 178 242 q 218 122 178 169 q 336 74 258 74 q 446 108 410 74 q 493 203 482 142 q 540 243 501 243 z "},"d":{"ha":692,"x_min":79,"x_max":592,"o":"m 592 39 q 549 -7 592 -7 q 522 1 533 -7 q 506 29 511 8 l 499 78 q 421 10 468 35 q 314 -14 374 -14 q 141 54 203 -14 q 79 238 79 122 l 79 442 q 141 625 79 557 q 314 693 203 693 q 415 672 371 693 q 490 611 460 650 l 490 897 q 503 933 490 919 q 540 947 517 947 q 578 933 564 947 q 592 897 592 919 l 592 39 m 331 76 q 448 124 406 76 q 490 243 490 172 l 490 435 q 448 554 490 506 q 331 603 406 603 q 219 557 257 603 q 181 446 181 511 l 181 233 q 218 122 181 167 q 331 76 256 76 z "},"e":{"ha":658,"x_min":76,"x_max":586,"o":"m 538 233 q 572 218 560 233 q 582 178 585 203 q 506 38 572 90 q 335 -14 439 -14 q 147 53 218 -14 q 76 239 76 121 l 76 429 q 95 539 76 490 q 148 622 114 588 q 229 675 182 657 q 335 693 276 693 q 437 675 390 693 q 517 622 483 657 q 568 539 550 588 q 586 429 586 490 l 586 376 q 573 340 586 353 q 536 326 560 326 l 176 326 l 176 229 q 218 115 176 161 q 336 69 260 69 q 449 107 411 69 q 494 196 488 144 q 538 233 500 233 m 176 406 l 490 406 l 490 439 q 450 561 490 513 q 335 610 410 610 q 217 561 258 610 q 176 439 176 513 l 176 406 z "},"f":{"ha":458,"x_min":33,"x_max":444,"o":"m 33 632 q 44 663 33 651 q 75 675 56 675 l 150 675 l 150 708 q 208 881 150 821 q 376 940 267 940 l 401 940 q 433 928 421 940 q 444 896 444 915 q 401 853 444 853 l 375 853 q 279 815 306 853 q 253 715 253 776 l 253 675 l 393 675 q 424 663 413 675 q 435 632 435 651 q 424 601 435 613 q 393 589 413 589 l 253 589 l 253 43 q 239 7 253 21 q 201 -7 225 -7 q 164 7 178 -7 q 150 43 150 21 l 150 589 l 75 589 q 44 601 56 589 q 33 632 33 613 z "},"g":{"ha":692,"x_min":79,"x_max":592,"o":"m 506 650 q 521 678 508 669 q 549 686 533 686 q 581 674 569 686 q 592 640 592 661 l 592 -37 q 522 -212 592 -150 q 339 -274 453 -274 q 177 -232 239 -274 q 99 -121 115 -190 q 103 -76 92 -97 q 142 -56 114 -56 q 186 -92 175 -56 q 202 -127 192 -110 q 231 -158 213 -144 q 275 -181 249 -172 q 338 -189 301 -189 q 451 -149 413 -189 q 490 -43 490 -110 l 490 92 q 415 32 460 53 q 314 11 371 11 q 141 79 203 11 q 79 261 79 147 l 79 442 q 141 625 79 557 q 314 693 203 693 q 422 669 375 693 q 499 601 468 644 l 506 650 m 331 101 q 448 149 406 101 q 490 268 490 197 l 490 435 q 448 554 490 506 q 331 603 406 603 q 219 557 257 603 q 181 446 181 511 l 181 258 q 218 147 181 192 q 331 101 256 101 z "},"h":{"ha":707,"x_min":100,"x_max":613,"o":"m 151 -7 q 114 7 128 -7 q 100 43 100 21 l 100 897 q 114 933 100 919 q 151 947 128 947 q 188 933 174 947 q 201 897 201 919 l 201 611 q 276 672 232 650 q 379 693 321 693 q 552 626 492 693 q 613 444 613 558 l 613 43 q 599 7 613 21 q 561 -7 585 -7 q 524 7 538 -7 q 511 43 511 21 l 511 446 q 473 557 511 511 q 361 603 435 603 q 244 554 286 603 q 201 435 201 506 l 201 43 q 188 7 201 21 q 151 -7 174 -7 z "},"i":{"ha":301,"x_min":85,"x_max":217,"o":"m 151 686 q 188 672 174 686 q 201 636 201 658 l 201 43 q 188 7 201 21 q 151 -7 174 -7 q 114 7 128 -7 q 100 43 100 21 l 100 636 q 114 672 100 658 q 151 686 128 686 m 85 871 q 104 918 85 899 q 151 938 124 938 q 198 918 179 938 q 217 871 217 899 q 198 824 217 843 q 151 806 179 806 q 104 824 124 806 q 85 871 85 843 z "},"j":{"ha":301,"x_min":-89,"x_max":217,"o":"m 85 871 q 103 918 85 899 q 150 938 122 938 q 197 918 178 938 q 217 871 217 899 q 197 824 217 843 q 150 806 178 806 q 103 824 122 806 q 85 871 85 843 m -40 -186 q 66 -144 32 -183 q 100 -35 100 -104 l 100 635 q 113 672 100 658 q 150 686 126 686 q 188 672 174 686 q 201 635 201 658 l 201 -28 q 136 -212 201 -150 q -37 -274 71 -274 q -89 -229 -89 -274 q -40 -186 -89 -187 z "},"k":{"ha":654,"x_min":100,"x_max":617,"o":"m 567 -7 q 522 19 536 -7 l 318 340 l 201 224 l 201 43 q 188 7 201 21 q 151 -7 174 -7 q 114 7 128 -7 q 100 43 100 21 l 100 897 q 114 933 100 919 q 151 947 128 947 q 188 933 175 947 q 201 897 201 919 l 201 350 l 521 671 q 535 682 528 678 q 553 686 542 686 q 586 672 572 686 q 600 639 600 658 q 597 624 600 632 q 588 610 594 615 l 392 413 l 608 71 q 617 43 617 58 q 602 8 617 24 q 567 -7 588 -7 z "},"l":{"ha":314,"x_min":106,"x_max":208,"o":"m 157 947 q 194 933 181 947 q 208 897 208 919 l 208 43 q 194 7 208 21 q 157 -7 181 -7 q 119 7 133 -7 q 106 43 106 21 l 106 897 q 119 933 106 919 q 157 947 133 947 z "},"m":{"ha":1101,"x_min":100,"x_max":1008,"o":"m 193 600 q 269 669 222 644 q 375 693 315 693 q 501 661 450 693 q 579 571 553 629 q 658 661 607 629 q 778 693 710 693 q 948 626 888 693 q 1008 444 1008 558 l 1008 43 q 994 7 1008 21 q 957 -7 981 -7 q 919 7 933 -7 q 906 43 906 21 l 906 446 q 869 558 906 513 q 760 603 832 603 q 647 556 689 603 q 604 443 604 510 l 604 43 q 590 7 604 21 q 554 -7 576 -7 q 517 7 531 -7 q 503 43 503 21 l 503 446 q 466 558 503 513 q 357 603 429 603 q 244 556 286 603 q 201 440 201 510 l 201 43 q 188 7 201 21 q 151 -7 174 -7 q 114 7 128 -7 q 100 43 100 21 l 100 640 q 111 674 100 661 q 143 686 122 686 q 170 678 158 686 q 185 650 182 669 l 193 600 z "},"n":{"ha":707,"x_min":100,"x_max":613,"o":"m 193 599 q 271 668 224 643 q 379 693 318 693 q 552 626 492 693 q 613 444 613 558 l 613 43 q 599 7 613 21 q 561 -7 585 -7 q 525 7 539 -7 q 511 43 511 21 l 511 446 q 473 557 511 511 q 361 603 435 603 q 244 554 286 603 q 201 435 201 506 l 201 43 q 188 7 201 21 q 151 -7 174 -7 q 114 7 128 -7 q 100 43 100 21 l 100 640 q 111 674 100 661 q 143 686 122 686 q 170 678 158 686 q 185 650 182 669 l 193 599 z "},"o":{"ha":671,"x_min":76,"x_max":594,"o":"m 178 242 q 219 122 178 169 q 335 74 260 74 q 451 122 410 74 q 492 242 492 169 l 492 436 q 451 556 492 508 q 335 604 410 604 q 219 556 260 604 q 178 436 178 508 l 178 242 m 594 250 q 576 140 594 189 q 522 57 557 92 q 440 4 488 22 q 335 -14 393 -14 q 229 4 276 -14 q 148 57 182 22 q 95 140 114 92 q 76 250 76 189 l 76 429 q 95 539 76 490 q 148 622 114 588 q 229 675 182 657 q 335 693 276 693 q 440 675 393 693 q 522 622 488 657 q 576 539 557 588 q 594 429 594 490 l 594 250 z "},"p":{"ha":692,"x_min":100,"x_max":613,"o":"m 361 603 q 244 554 286 603 q 201 435 201 506 l 201 243 q 244 124 201 172 q 361 76 286 76 q 474 122 436 76 q 511 233 511 167 l 511 446 q 473 557 511 511 q 361 603 435 603 m 193 600 q 270 669 224 644 q 378 693 317 693 q 551 625 489 693 q 613 442 613 557 l 613 238 q 551 54 613 122 q 378 -14 489 -14 q 201 68 264 -14 l 201 -217 q 188 -253 201 -239 q 151 -267 175 -267 q 114 -253 128 -267 q 100 -217 100 -239 l 100 640 q 111 674 100 661 q 143 686 122 686 q 170 678 158 686 q 185 650 182 669 l 193 600 z "},"q":{"ha":692,"x_min":79,"x_max":592,"o":"m 506 650 q 521 678 508 669 q 549 686 533 686 q 581 674 569 686 q 592 640 592 661 l 592 -217 q 578 -253 592 -239 q 542 -267 564 -267 q 504 -253 518 -267 q 490 -217 490 -239 l 490 68 q 314 -14 428 -14 q 141 54 203 -14 q 79 238 79 122 l 79 442 q 141 625 79 557 q 314 693 203 693 q 421 669 374 693 q 499 600 468 644 l 506 650 m 331 603 q 219 557 257 603 q 181 446 181 511 l 181 233 q 218 122 181 167 q 331 76 256 76 q 448 124 406 76 q 490 243 490 172 l 490 435 q 448 554 490 506 q 331 603 406 603 z "},"r":{"ha":438,"x_min":100,"x_max":415,"o":"m 194 593 q 267 665 222 639 q 368 690 311 690 q 402 677 389 690 q 415 643 415 664 q 403 610 415 622 q 372 597 392 597 q 247 550 293 597 q 201 428 201 503 l 201 43 q 188 7 201 21 q 151 -7 175 -7 q 114 7 128 -7 q 100 43 100 21 l 100 640 q 111 674 100 661 q 143 686 122 686 q 170 678 158 686 q 185 650 182 671 l 194 593 z "},"s":{"ha":622,"x_min":58,"x_max":556,"o":"m 236 325 q 178 349 207 335 q 128 383 150 363 q 92 433 106 404 q 79 503 79 463 q 96 576 79 542 q 143 636 113 610 q 216 678 174 663 q 310 693 258 693 q 470 650 408 693 q 546 536 532 607 q 540 495 550 514 q 504 476 529 476 q 458 514 469 476 q 412 583 446 554 q 311 613 378 613 q 262 606 286 613 q 218 588 238 600 q 187 556 199 575 q 175 511 175 538 q 194 456 175 476 q 257 421 214 435 l 372 385 q 443 358 410 372 q 501 321 476 343 q 541 268 526 299 q 556 193 556 238 q 538 109 556 147 q 490 44 521 71 q 413 1 458 17 q 313 -14 368 -14 q 140 33 208 -14 q 61 164 71 81 q 70 201 58 183 q 106 218 82 218 q 149 182 142 218 q 196 102 158 136 q 311 68 233 68 q 420 100 383 68 q 457 182 457 132 q 436 247 457 224 q 367 285 415 269 l 236 325 z "},"t":{"ha":436,"x_min":24,"x_max":413,"o":"m 24 631 q 35 663 24 650 q 65 675 46 675 l 167 675 l 167 817 q 181 853 167 839 q 218 867 194 867 q 255 853 240 867 q 269 817 269 839 l 269 675 l 371 675 q 401 664 390 675 q 413 633 413 653 q 401 601 413 614 q 371 589 390 589 l 269 589 l 269 43 q 255 7 269 21 q 218 -7 240 -7 q 181 7 194 -7 q 167 43 167 21 l 167 589 l 65 589 q 35 600 46 589 q 24 631 24 611 z "},"u":{"ha":699,"x_min":94,"x_max":599,"o":"m 506 78 q 428 10 475 35 q 321 -14 381 -14 q 153 52 213 -14 q 94 229 94 118 l 94 635 q 108 672 94 658 q 144 686 121 686 q 182 672 168 686 q 196 635 196 658 l 196 229 q 232 120 196 164 q 339 76 268 76 q 456 124 414 76 q 497 243 497 172 l 497 635 q 511 672 497 658 q 547 686 525 686 q 585 672 571 686 q 599 635 599 658 l 599 39 q 556 -7 599 -7 q 528 1 540 -7 q 514 29 517 10 l 506 78 z "},"v":{"ha":636,"x_min":40,"x_max":596,"o":"m 97 686 q 128 676 115 686 q 147 650 140 665 l 321 133 l 494 649 q 513 676 501 665 q 542 686 525 686 q 583 664 569 686 q 588 618 596 642 l 382 39 q 318 -8 365 -8 q 254 39 271 -8 l 50 614 q 55 663 40 640 q 97 686 69 686 z "},"w":{"ha":913,"x_min":53,"x_max":861,"o":"m 694 36 q 639 -7 681 -7 q 585 36 599 -7 l 457 507 l 331 36 q 275 -7 317 -7 q 218 36 232 -7 l 56 615 q 53 632 53 626 q 67 671 53 656 q 103 686 82 686 q 137 674 124 686 q 154 644 150 663 l 279 156 l 403 642 q 423 674 408 661 q 458 686 438 686 q 493 674 478 686 q 514 642 508 661 l 638 157 l 764 649 q 780 676 768 665 q 811 686 792 686 q 844 673 831 686 q 860 640 857 660 q 857 613 861 631 l 694 36 z "},"x":{"ha":613,"x_min":40,"x_max":568,"o":"m 519 -7 q 478 15 493 -7 l 303 271 l 129 18 q 113 1 122 8 q 89 -7 103 -7 q 55 6 69 -7 q 40 39 40 19 q 50 64 40 51 l 247 338 l 57 608 q 51 620 54 613 q 47 636 47 628 q 63 671 47 656 q 99 686 78 686 q 122 680 111 686 q 139 664 132 674 l 310 415 l 476 660 q 493 678 483 671 q 517 686 503 686 q 551 672 536 686 q 565 639 565 658 q 556 614 565 626 l 364 347 l 560 69 q 568 43 568 58 q 554 8 568 24 q 519 -7 540 -7 z "},"y":{"ha":635,"x_min":42,"x_max":596,"o":"m 285 -232 q 267 -257 279 -247 q 240 -267 256 -267 q 203 -249 217 -267 q 197 -207 190 -231 l 272 -3 l 49 615 q 53 661 42 636 q 96 686 65 686 q 146 650 135 686 l 321 138 l 496 651 q 540 686 506 686 q 581 665 567 686 q 588 619 596 644 l 285 -232 z "},"z":{"ha":596,"x_min":50,"x_max":549,"o":"m 176 85 l 508 85 q 538 72 526 85 q 549 42 549 60 q 538 11 549 22 q 508 0 526 0 l 93 0 q 50 39 50 0 q 56 65 50 54 q 68 88 61 75 l 410 593 l 97 593 q 67 605 78 593 q 56 636 56 617 q 67 667 56 654 q 97 679 78 679 l 494 679 q 536 640 536 679 q 531 614 536 625 q 518 592 525 603 l 176 85 z "},"{":{"ha":464,"x_min":32,"x_max":415,"o":"m 151 300 q 148 342 151 322 q 135 378 144 363 q 108 404 125 394 q 67 417 92 414 q 40 431 49 419 q 32 458 32 442 q 40 486 32 475 q 65 500 47 497 q 133 537 115 506 q 151 617 151 568 l 151 825 q 206 992 151 932 q 365 1061 260 1053 q 400 1050 385 1063 q 415 1015 415 1038 q 406 985 415 999 q 381 969 397 971 q 283 926 310 964 q 257 828 257 889 l 257 619 q 174 458 257 503 q 257 296 257 411 l 257 81 q 283 -18 257 19 q 381 -61 310 -56 q 406 -76 397 -62 q 415 -106 415 -89 q 401 -141 415 -128 q 368 -153 388 -154 q 206 -84 260 -144 q 151 83 151 -24 l 151 300 z "},"|":{"ha":321,"x_min":113,"x_max":208,"o":"m 208 -115 q 195 -149 208 -136 q 161 -161 182 -161 q 126 -149 140 -161 q 113 -115 113 -136 l 113 1024 q 126 1057 113 1044 q 161 1069 140 1069 q 195 1057 182 1069 q 208 1024 208 1044 l 208 -115 z "},"}":{"ha":464,"x_min":49,"x_max":432,"o":"m 313 83 q 258 -84 313 -24 q 96 -153 204 -144 q 63 -141 76 -154 q 49 -106 49 -128 q 58 -76 49 -89 q 83 -61 67 -62 q 181 -18 154 -56 q 207 81 207 19 l 207 296 q 290 458 207 411 q 207 619 207 503 l 207 828 q 181 926 207 889 q 83 969 154 964 q 58 985 67 971 q 49 1015 49 999 q 64 1050 49 1038 q 99 1061 79 1063 q 258 992 204 1053 q 313 825 313 932 l 313 617 q 331 537 313 568 q 399 500 349 506 q 424 486 417 497 q 432 458 432 475 q 424 431 432 442 q 397 417 415 419 q 356 404 372 414 q 329 378 339 394 q 316 342 319 363 q 313 300 313 322 l 313 83 z "},"~":{"ha":710,"x_min":79,"x_max":636,"o":"m 631 489 q 570 411 604 443 q 485 379 536 379 q 419 394 447 379 q 358 431 390 408 q 313 459 336 446 q 261 472 289 472 q 199 448 225 472 q 150 383 174 424 q 118 367 140 367 q 90 378 101 367 q 79 407 79 390 q 82 419 79 414 q 88 431 85 424 q 161 522 119 488 q 263 557 203 557 q 340 540 307 557 q 400 503 372 522 q 443 476 424 488 q 485 464 463 464 q 528 483 510 464 q 565 529 547 501 q 597 549 576 549 q 625 537 614 549 q 636 508 636 525 q 631 489 636 500 z "}," ":{"ha":294,"x_min":0,"x_max":0,"o":""},"¡":{"ha":311,"x_min":86,"x_max":226,"o":"m 210 0 l 210 -187 q 194 -226 210 -211 q 156 -240 179 -240 q 117 -226 132 -240 q 103 -187 103 -211 l 103 0 l 122 422 q 156 453 125 453 q 190 422 188 453 l 210 0 m 86 624 q 107 673 86 653 q 156 693 128 693 q 206 673 186 693 q 226 624 226 653 q 206 573 226 593 q 156 553 186 553 q 107 573 128 553 q 86 624 86 593 z "},"¢":{"ha":660,"x_min":74,"x_max":588,"o":"m 332 933 q 363 922 351 933 q 375 892 375 911 l 375 807 q 518 746 463 797 q 583 610 574 694 q 574 573 586 590 q 538 556 561 556 q 506 565 518 556 q 492 589 494 574 q 443 686 482 650 q 333 722 404 722 q 217 674 258 722 q 176 554 176 626 l 176 360 q 217 240 176 288 q 333 192 258 192 q 445 228 408 192 q 492 325 482 265 q 508 354 494 344 q 539 364 521 364 q 574 348 561 364 q 585 311 588 332 q 521 170 576 224 q 375 107 465 117 l 375 21 q 363 -10 375 1 q 332 -21 351 -21 q 301 -10 313 -21 q 290 21 290 1 l 290 107 q 132 188 190 119 q 74 367 74 256 l 74 547 q 132 725 74 657 q 290 807 190 793 l 290 892 q 301 922 290 911 q 332 933 313 933 z "},"£":{"ha":774,"x_min":63,"x_max":703,"o":"m 63 403 q 74 434 63 422 q 104 446 85 446 l 158 446 l 158 640 q 178 760 158 707 q 235 849 199 813 q 321 906 271 886 q 432 926 371 926 q 613 860 542 926 q 690 676 683 793 q 678 640 692 656 q 642 624 665 624 q 607 636 622 624 q 590 668 592 649 q 546 788 585 743 q 432 833 507 833 q 306 780 349 833 q 263 643 263 726 l 263 446 l 483 446 q 513 434 503 446 q 524 403 524 422 q 513 372 524 383 q 483 361 503 361 l 263 361 l 263 90 l 658 90 q 691 77 679 90 q 703 44 703 64 q 658 0 703 0 l 107 0 q 75 13 88 0 q 63 46 63 25 q 75 78 63 65 q 107 90 88 90 l 158 90 l 158 361 l 104 361 q 74 372 85 361 q 63 403 63 383 z "},"¤":{"ha":813,"x_min":90,"x_max":721,"o":"m 90 194 q 106 228 90 215 l 196 313 q 160 451 160 369 l 160 464 q 194 603 160 544 l 106 688 q 90 721 90 700 q 103 753 90 739 q 136 767 117 767 q 171 751 156 767 l 253 664 q 322 697 283 685 q 406 708 360 708 q 558 663 493 708 l 642 751 q 675 767 657 767 q 708 753 694 767 q 721 721 721 739 q 707 688 721 701 l 615 601 q 643 539 633 574 q 653 464 653 504 l 653 451 q 643 376 653 411 q 615 313 633 340 l 707 228 q 721 194 721 214 q 708 163 721 178 q 675 149 694 149 q 642 164 657 149 l 558 253 q 406 207 496 207 q 253 251 314 207 l 171 164 q 136 149 156 149 q 103 163 117 149 q 90 194 90 178 m 257 449 q 296 340 257 382 q 406 297 335 297 q 517 340 478 297 q 556 449 556 382 l 556 468 q 517 576 556 533 q 406 619 478 619 q 296 576 335 619 q 257 468 257 533 l 257 449 z "},"¥":{"ha":740,"x_min":81,"x_max":660,"o":"m 126 418 q 100 428 110 418 q 90 454 90 439 q 100 481 90 471 q 126 492 110 492 l 265 492 l 85 847 q 81 868 81 856 q 95 904 81 889 q 131 919 110 919 q 176 892 163 919 l 372 492 l 568 893 q 587 914 575 908 q 611 919 599 919 q 645 906 632 919 q 660 876 658 893 q 653 847 660 864 l 471 492 l 614 492 q 640 481 631 492 q 650 454 650 471 q 614 418 650 418 l 433 418 l 421 393 l 421 310 l 614 310 q 640 299 631 310 q 650 272 650 289 q 614 236 650 236 l 421 236 l 421 44 q 406 7 421 21 q 367 -7 390 -7 q 328 7 343 -7 q 314 44 314 21 l 314 236 l 126 236 q 90 272 90 236 q 100 299 90 289 q 126 310 110 310 l 314 310 l 315 393 l 303 418 l 126 418 l 126 418 z "},"¦":{"ha":332,"x_min":114,"x_max":218,"o":"m 114 1019 q 128 1056 114 1042 q 167 1069 143 1069 q 203 1056 189 1069 q 218 1019 218 1042 l 218 606 q 203 569 218 583 q 167 556 189 556 q 128 569 143 556 q 114 606 114 583 l 114 1019 m 114 303 q 128 339 114 325 q 165 353 142 353 q 203 339 188 353 q 218 303 218 325 l 218 -111 q 203 -147 218 -133 q 167 -161 189 -161 q 128 -147 143 -161 q 114 -111 114 -133 l 114 303 z "},"§":{"ha":711,"x_min":82,"x_max":631,"o":"m 269 454 q 198 490 232 469 q 138 540 164 511 q 97 604 113 568 q 82 686 82 640 q 101 783 82 739 q 157 860 121 828 q 243 909 193 892 q 354 926 293 926 q 542 865 467 926 q 626 690 617 804 q 615 656 628 671 q 578 640 601 640 q 544 650 558 640 q 528 678 531 660 q 478 795 521 751 q 354 839 436 839 q 226 799 271 839 q 182 696 182 758 q 212 610 182 647 q 288 554 242 574 l 494 465 q 590 410 553 440 q 629 339 626 381 q 618 317 631 324 q 590 318 606 311 l 269 454 m 443 199 q 515 163 481 183 q 574 113 549 142 q 614 49 599 85 q 629 -35 629 13 q 610 -131 629 -87 q 555 -207 590 -175 q 469 -256 519 -239 q 357 -274 418 -274 q 171 -212 246 -274 q 86 -37 96 -151 q 98 -3 85 -18 q 135 13 111 13 q 167 3 154 13 q 183 -26 181 -7 q 233 -142 190 -97 q 357 -186 275 -186 q 485 -146 440 -186 q 531 -43 531 -106 q 501 42 531 6 q 424 99 471 79 l 217 188 q 122 242 158 213 q 83 314 86 272 q 94 335 82 329 q 122 335 106 342 l 443 199 z "},"¨":{"ha":335,"x_min":28,"x_max":307,"o":"m 28 843 q 46 885 28 868 q 90 903 64 903 q 132 885 115 903 q 149 843 149 868 q 132 799 149 817 q 90 781 115 781 q 46 799 64 781 q 28 843 28 817 m 186 843 q 204 885 186 868 q 247 903 222 903 q 290 885 272 903 q 307 843 307 868 q 290 799 307 817 q 247 781 272 781 q 204 799 222 781 q 186 843 186 817 z "},"©":{"ha":1071,"x_min":64,"x_max":1007,"o":"m 64 454 q 101 638 64 551 q 201 788 138 724 q 351 890 265 853 q 535 926 436 926 q 718 890 632 926 q 869 788 804 853 q 970 638 933 724 q 1007 454 1007 551 q 970 270 1007 356 q 869 122 933 185 q 718 22 804 58 q 535 -15 632 -15 q 351 22 436 -15 q 201 122 265 58 q 101 270 138 185 q 64 454 64 356 m 139 454 q 170 299 139 371 q 255 172 201 226 q 381 87 308 118 q 535 56 453 56 q 689 87 617 56 q 815 172 761 118 q 899 299 868 226 q 931 454 931 371 q 900 610 931 538 q 816 738 869 683 q 690 824 763 792 q 535 856 618 856 q 381 824 453 856 q 255 738 308 792 q 170 610 201 683 q 139 454 139 538 m 694 389 q 726 374 714 389 q 736 339 739 360 q 673 228 726 271 q 533 185 619 185 q 381 240 439 185 q 324 392 324 296 l 324 521 q 381 672 324 617 q 533 726 439 726 q 672 685 619 726 q 735 579 725 643 q 727 544 738 560 q 693 528 717 528 q 653 563 660 528 q 617 622 646 594 q 533 649 589 649 q 444 614 476 649 q 413 526 413 579 l 413 386 q 444 298 413 333 q 533 263 476 263 q 618 289 592 263 q 651 351 644 315 q 665 378 654 368 q 694 389 676 389 z "},"ª":{"ha":447,"x_min":82,"x_max":353,"o":"m 282 607 q 197 567 253 567 q 110 602 139 567 q 82 696 82 638 l 82 790 q 110 884 82 849 q 197 919 139 919 q 282 879 256 919 l 285 892 q 317 919 289 919 q 353 886 353 919 l 353 599 q 317 567 353 567 q 285 593 289 567 l 282 607 m 215 632 q 260 651 243 632 q 276 697 276 669 l 276 788 q 260 834 276 815 q 215 853 243 853 q 173 835 188 853 q 158 790 158 818 l 158 696 q 173 650 158 668 q 215 632 188 632 z "},"«":{"ha":457,"x_min":79,"x_max":368,"o":"m 310 324 l 361 132 q 356 102 365 114 q 328 90 346 90 q 290 118 301 90 l 235 283 q 228 302 232 292 q 224 324 224 313 q 228 345 224 335 q 235 364 232 356 l 292 533 q 329 561 301 561 q 357 549 346 561 q 363 518 368 536 l 310 324 m 164 324 l 219 135 q 214 103 225 115 q 186 90 203 90 q 147 118 158 90 l 89 283 q 83 302 86 292 q 79 324 79 313 q 83 345 79 335 q 89 364 86 356 l 149 533 q 186 561 160 561 q 215 548 204 561 q 219 517 225 535 l 164 324 z "},"¬":{"ha":726,"x_min":86,"x_max":622,"o":"m 86 456 q 98 488 86 475 q 129 501 110 501 l 579 501 q 622 458 622 501 l 622 250 q 609 215 622 228 q 574 201 596 201 q 537 215 550 201 q 524 250 524 228 l 524 410 l 129 410 q 98 423 110 410 q 86 456 86 436 z "},"­":{"ha":515,"x_min":88,"x_max":428,"o":"m 88 364 q 99 397 88 383 q 131 410 111 410 l 385 410 q 416 397 404 410 q 428 364 428 383 q 416 331 428 344 q 385 318 404 318 l 131 318 q 99 331 111 318 q 88 364 88 344 z "},"®":{"ha":718,"x_min":74,"x_max":646,"o":"m 74 639 q 96 751 74 699 q 156 843 118 804 q 247 904 194 882 q 358 926 299 926 q 470 904 418 926 q 561 843 522 882 q 623 751 600 804 q 646 639 646 699 q 623 527 646 579 q 561 437 600 475 q 470 376 522 399 q 358 354 418 354 q 247 376 299 354 q 156 437 194 399 q 96 527 118 475 q 74 639 74 579 m 135 639 q 152 550 135 592 q 199 478 169 508 q 270 430 229 447 q 358 413 311 413 q 445 430 404 413 q 517 478 486 447 q 565 550 547 508 q 582 639 582 592 q 565 728 582 686 q 517 801 547 769 q 445 850 486 832 q 358 868 404 868 q 270 850 311 868 q 199 801 229 832 q 152 728 169 769 q 135 639 135 686 m 311 742 l 311 650 l 368 650 q 407 663 394 650 q 419 697 419 676 q 368 742 419 742 l 311 742 m 468 524 q 471 516 471 519 q 471 510 471 513 q 462 488 471 496 q 440 479 453 479 q 414 496 418 479 l 371 600 l 311 600 l 311 510 q 281 479 311 479 q 251 510 251 479 l 251 763 q 282 793 251 793 l 374 793 q 453 768 422 793 q 483 699 483 743 q 469 647 483 669 q 431 613 454 624 l 468 524 z "},"¯":{"ha":382,"x_min":21,"x_max":361,"o":"m 21 833 q 31 860 21 850 q 58 871 42 871 l 324 871 q 351 860 340 871 q 361 833 361 850 q 351 805 361 815 q 324 794 340 794 l 58 794 q 31 806 42 794 q 21 833 21 817 z "},"°":{"ha":574,"x_min":68,"x_max":506,"o":"m 68 707 q 85 792 68 753 q 132 862 103 832 q 201 909 161 892 q 285 926 240 926 q 371 909 331 926 q 441 862 411 892 q 488 792 471 832 q 506 707 506 753 q 488 622 506 661 q 441 553 471 582 q 371 506 411 524 q 285 489 331 489 q 201 506 240 489 q 132 553 161 524 q 85 622 103 582 q 68 707 68 661 m 153 707 q 163 653 153 678 q 191 608 174 628 q 233 578 208 589 q 285 567 257 567 q 337 578 313 567 q 379 608 361 589 q 408 653 397 628 q 418 707 418 678 q 408 761 418 736 q 379 806 397 786 q 337 836 361 825 q 285 847 313 847 q 233 836 257 847 q 191 806 208 825 q 163 761 174 786 q 153 707 153 736 z "},"±":{"ha":724,"x_min":92,"x_max":635,"o":"m 411 553 l 596 553 q 624 542 614 553 q 635 513 635 531 q 624 483 635 494 q 596 472 614 472 l 411 472 l 411 332 q 397 299 411 311 q 361 286 382 286 q 326 299 339 286 q 314 332 314 311 l 314 472 l 129 472 q 101 483 111 472 q 92 513 92 494 q 101 542 92 531 q 129 553 111 553 l 314 553 l 314 694 q 361 742 314 742 q 397 729 382 742 q 411 694 411 717 l 411 553 m 92 190 q 101 218 92 207 q 128 229 111 229 l 594 229 q 621 218 611 229 q 631 190 631 207 q 621 163 631 174 q 594 153 611 153 l 128 153 q 101 163 111 153 q 92 190 92 174 z "},"²":{"ha":388,"x_min":44,"x_max":347,"o":"m 44 708 q 60 789 44 747 q 126 863 76 831 l 206 914 q 244 950 229 929 q 258 1000 258 971 q 242 1042 258 1026 q 193 1058 225 1058 q 145 1043 161 1058 q 124 1006 129 1028 q 86 974 117 974 q 59 983 71 974 q 47 1010 47 993 q 90 1093 49 1057 q 194 1129 131 1129 q 301 1096 261 1129 q 340 1003 340 1063 q 319 924 340 957 q 258 863 299 890 l 178 810 q 142 772 150 792 q 132 739 135 753 l 311 739 q 338 728 328 739 q 347 701 347 718 q 311 667 347 667 l 85 667 q 56 678 67 667 q 44 707 44 689 l 44 708 z "},"³":{"ha":386,"x_min":44,"x_max":340,"o":"m 142 903 q 171 933 142 933 l 185 933 q 237 951 221 933 q 253 997 253 968 q 236 1043 253 1026 q 188 1060 219 1060 q 144 1046 160 1060 q 121 1008 128 1032 q 85 981 111 981 q 58 990 69 981 q 47 1015 47 1000 q 59 1060 47 1039 q 90 1097 71 1081 q 135 1122 110 1113 q 190 1131 161 1131 q 294 1097 256 1131 q 332 1007 332 1063 q 317 944 332 969 q 278 906 303 918 q 324 863 307 890 q 340 794 340 835 q 299 697 340 732 q 189 661 258 661 q 133 670 160 661 q 87 694 107 679 q 56 728 67 708 q 44 772 44 749 q 55 800 44 789 q 82 811 65 811 q 106 802 97 811 q 119 779 115 793 q 141 744 126 760 q 188 729 156 729 q 240 749 222 729 q 258 803 258 768 q 240 853 258 833 q 185 872 222 872 l 171 872 q 142 903 142 872 z "},"´":{"ha":283,"x_min":36,"x_max":242,"o":"m 161 944 q 196 960 176 960 q 228 947 215 960 q 242 913 242 933 q 225 876 242 893 l 92 774 q 71 767 82 767 q 46 776 56 767 q 36 800 36 786 q 49 829 36 814 l 161 944 z "},"µ":{"ha":696,"x_min":104,"x_max":610,"o":"m 515 78 q 439 10 486 35 q 331 -14 392 -14 q 199 36 246 -14 l 207 -200 l 207 -217 q 193 -253 207 -239 q 156 -267 179 -267 q 118 -253 132 -267 q 104 -217 104 -239 l 104 635 q 118 672 104 658 q 156 686 132 686 q 193 672 179 686 q 207 635 207 658 l 207 229 q 243 120 207 164 q 350 76 279 76 q 465 124 424 76 q 507 243 507 172 l 507 635 q 521 672 507 658 q 558 686 535 686 q 596 672 582 686 q 610 635 610 658 l 610 39 q 568 -7 610 -7 q 526 29 535 -7 l 515 78 z "},"¶":{"ha":708,"x_min":51,"x_max":593,"o":"m 408 350 q 396 319 408 329 q 363 311 383 310 q 234 335 292 314 q 136 395 176 357 q 74 488 96 433 q 51 611 51 542 q 76 736 51 681 q 147 831 101 792 q 254 892 192 871 q 392 913 317 913 l 543 913 q 580 899 567 913 q 593 863 593 885 l 593 -111 q 578 -147 593 -133 q 540 -161 564 -161 q 503 -147 517 -161 q 489 -111 489 -133 l 489 822 l 408 822 l 408 350 z "},"·":{"ha":319,"x_min":90,"x_max":231,"o":"m 90 381 q 110 431 90 411 q 160 451 131 451 q 210 431 189 451 q 231 381 231 411 q 210 331 231 351 q 160 311 189 311 q 110 331 131 311 q 90 381 90 351 z "},"¸":{"ha":332,"x_min":53,"x_max":307,"o":"m 194 -62 q 278 -89 249 -62 q 307 -160 307 -115 q 276 -233 307 -207 q 194 -260 246 -260 l 83 -260 q 61 -251 69 -260 q 53 -229 53 -242 q 83 -199 53 -199 l 193 -199 q 222 -190 210 -199 q 233 -161 233 -181 q 222 -133 233 -142 q 193 -124 210 -124 l 131 -124 q 106 -114 114 -124 q 103 -87 97 -104 l 140 42 l 201 18 l 178 -62 l 194 -62 z "},"¹":{"ha":308,"x_min":36,"x_max":289,"o":"m 36 1089 q 71 1124 36 1124 l 167 1124 q 201 1089 201 1124 l 201 736 l 256 736 q 280 726 271 736 q 289 701 289 717 q 280 677 289 686 q 256 668 271 668 l 69 668 q 45 677 54 668 q 36 701 36 686 q 45 726 36 717 q 69 736 54 736 l 122 736 l 122 1054 l 71 1054 q 36 1089 36 1054 z "},"º":{"ha":431,"x_min":79,"x_max":351,"o":"m 156 696 q 171 649 156 668 q 215 631 186 631 q 260 649 243 631 q 276 696 276 668 l 276 790 q 260 836 276 818 q 215 854 243 854 q 171 836 186 854 q 156 790 156 818 l 156 696 m 351 701 q 314 602 351 639 q 215 565 276 565 q 116 602 153 565 q 79 701 79 639 l 79 783 q 116 883 79 846 q 215 919 153 919 q 314 883 276 919 q 351 783 351 846 l 351 701 z "},"»":{"ha":457,"x_min":89,"x_max":378,"o":"m 94 518 q 100 549 89 536 q 128 561 111 561 q 165 533 156 561 l 222 364 q 229 345 225 356 q 233 324 233 335 q 229 302 233 313 q 222 283 225 292 l 167 118 q 129 90 156 90 q 101 102 111 90 q 96 132 92 114 l 147 324 l 94 518 m 238 517 q 242 548 232 535 q 271 561 253 561 q 308 533 297 561 l 368 364 q 374 345 371 356 q 378 324 378 335 q 374 302 378 313 q 368 283 371 292 l 310 118 q 271 90 299 90 q 243 103 254 90 q 238 135 232 115 l 293 324 l 238 517 z "},"¼":{"ha":861,"x_min":68,"x_max":804,"o":"m 697 463 q 735 451 721 463 q 749 419 749 439 l 749 167 l 772 167 q 796 157 788 167 q 804 133 804 147 q 796 108 804 118 q 772 99 788 99 l 749 99 l 749 32 q 738 3 749 14 q 708 -7 726 -7 q 669 32 669 -7 l 669 99 l 510 99 q 473 113 486 99 q 460 144 460 128 q 466 179 460 167 q 485 210 472 192 l 631 424 q 658 453 643 443 q 697 463 672 463 m 669 167 l 669 364 l 533 167 l 669 167 m 68 878 q 103 913 68 913 l 199 913 q 233 878 233 913 l 233 525 l 288 525 q 312 515 303 525 q 321 490 321 506 q 312 466 321 475 q 288 457 303 457 l 101 457 q 77 466 86 457 q 68 490 68 475 q 77 515 68 506 q 101 525 86 525 l 154 525 l 154 843 l 103 843 q 68 878 68 843 m 488 456 l 228 11 q 194 -7 217 -7 q 166 4 178 -7 q 154 32 154 15 q 161 53 154 43 l 404 457 l 665 901 q 699 919 676 919 q 726 908 714 919 q 738 881 738 897 q 732 860 738 871 l 488 456 z "},"½":{"ha":876,"x_min":67,"x_max":811,"o":"m 508 42 q 524 122 508 81 q 590 196 540 164 l 669 247 q 708 283 693 263 q 722 333 722 304 q 706 376 722 360 q 657 392 689 392 q 609 376 625 392 q 588 339 593 361 q 550 307 581 307 q 523 317 535 307 q 511 343 511 326 q 553 426 513 390 q 658 463 594 463 q 765 429 725 463 q 804 336 804 396 q 783 257 804 290 q 722 196 763 224 l 642 143 q 606 106 614 125 q 596 72 599 86 l 775 72 q 801 62 792 72 q 811 35 811 51 q 775 0 811 0 l 549 0 q 519 11 531 0 q 508 40 508 22 l 508 42 m 67 878 q 101 913 67 913 l 197 913 q 232 878 232 913 l 232 525 l 286 525 q 310 515 301 525 q 319 490 319 506 q 310 466 319 475 q 286 457 301 457 l 100 457 q 76 466 85 457 q 67 490 67 475 q 76 515 67 506 q 100 525 85 525 l 153 525 l 153 843 l 101 843 q 67 878 67 843 m 486 456 l 226 11 q 193 -7 215 -7 q 165 4 176 -7 q 153 32 153 15 q 160 53 153 43 l 403 457 l 664 901 q 697 919 675 919 q 724 908 713 919 q 736 881 736 897 q 731 860 736 871 l 486 456 z "},"¾":{"ha":863,"x_min":71,"x_max":804,"o":"m 697 463 q 735 451 721 463 q 749 419 749 439 l 749 167 l 772 167 q 796 157 788 167 q 804 133 804 147 q 796 108 804 118 q 772 99 788 99 l 749 99 l 749 32 q 738 3 749 14 q 708 -7 726 -7 q 669 32 669 -7 l 669 99 l 510 99 q 473 113 486 99 q 460 144 460 128 q 466 179 460 167 q 485 210 472 192 l 631 424 q 658 453 643 443 q 697 463 672 463 m 669 167 l 669 364 l 533 167 l 669 167 m 488 456 l 228 11 q 194 -7 217 -7 q 166 4 178 -7 q 154 32 154 15 q 161 53 154 43 l 404 457 l 665 901 q 699 919 676 919 q 726 908 714 919 q 738 881 738 897 q 732 860 738 871 l 488 456 m 168 699 q 197 729 168 729 l 211 729 q 263 747 247 729 q 279 793 279 764 q 263 839 279 822 q 214 856 246 856 q 170 842 186 856 q 147 804 154 828 q 111 776 138 776 q 85 786 96 776 q 74 811 74 796 q 85 856 74 835 q 117 892 97 876 q 162 917 136 908 q 217 926 188 926 q 320 892 282 926 q 358 803 358 858 q 344 740 358 765 q 304 701 329 714 q 350 658 333 686 q 367 590 367 631 q 326 492 367 528 q 215 457 285 457 q 160 466 186 457 q 113 490 133 475 q 82 524 93 504 q 71 568 71 544 q 81 596 71 585 q 108 607 92 607 q 133 598 124 607 q 146 575 142 589 q 167 540 153 556 q 214 525 182 525 q 267 544 249 525 q 285 599 285 564 q 267 649 285 629 q 211 668 249 668 l 197 668 q 168 699 168 668 z "},"¿":{"ha":654,"x_min":51,"x_max":601,"o":"m 344 449 q 374 437 363 449 q 389 407 386 425 q 385 327 394 363 q 357 262 376 292 q 311 205 338 232 q 258 151 285 178 q 224 117 242 135 q 192 80 206 100 q 169 36 178 60 q 160 -15 160 13 q 202 -115 160 -78 q 324 -151 244 -151 q 453 -110 408 -151 q 500 -1 497 -68 q 515 32 501 19 q 550 44 529 44 q 587 31 572 44 q 601 -6 601 18 q 580 -106 601 -61 q 522 -181 558 -150 q 433 -230 485 -212 q 322 -247 382 -247 q 212 -231 261 -247 q 126 -185 163 -215 q 71 -112 90 -156 q 51 -17 51 -69 q 63 51 51 19 q 92 110 74 82 q 135 165 111 139 q 185 215 158 190 q 226 255 207 236 q 261 296 246 274 q 287 346 276 318 q 300 413 297 374 q 315 438 301 428 q 344 449 328 449 m 414 624 q 394 574 414 594 q 344 554 374 554 q 295 574 315 554 q 275 624 275 594 q 295 673 275 653 q 344 693 315 693 q 394 673 374 693 q 414 624 414 653 z "},"À":{"ha":761,"x_min":46,"x_max":715,"o":"m 231 307 l 525 307 l 376 769 l 231 307 m 711 65 q 715 46 715 54 q 701 8 715 24 q 663 -7 686 -7 q 611 33 625 -7 l 553 215 l 201 215 l 143 29 q 126 3 139 14 q 93 -7 113 -7 q 59 8 72 -7 q 46 43 46 22 q 49 58 46 47 l 313 868 q 381 919 331 919 q 447 868 429 919 l 711 65 m 407 1032 q 417 1019 414 1025 q 419 1004 419 1013 q 410 981 419 990 q 385 971 400 971 q 364 978 374 971 l 231 1081 q 214 1117 214 1094 q 227 1150 214 1136 q 260 1164 240 1164 q 294 1147 278 1164 l 407 1032 z "},"Á":{"ha":761,"x_min":46,"x_max":715,"o":"m 231 307 l 525 307 l 376 769 l 231 307 m 711 65 q 715 46 715 54 q 701 8 715 24 q 663 -7 686 -7 q 611 33 625 -7 l 553 215 l 201 215 l 143 29 q 126 3 139 14 q 93 -7 113 -7 q 59 8 72 -7 q 46 43 46 22 q 49 58 46 47 l 313 868 q 381 919 331 919 q 447 868 429 919 l 711 65 m 464 1147 q 499 1164 481 1164 q 531 1150 518 1164 q 544 1117 544 1136 q 528 1081 544 1094 l 394 978 q 374 971 385 971 q 349 981 358 971 q 339 1004 339 990 q 342 1019 339 1013 q 351 1032 344 1025 l 464 1147 z "},"Â":{"ha":761,"x_min":46,"x_max":715,"o":"m 231 307 l 525 307 l 376 769 l 231 307 m 711 65 q 715 46 715 54 q 701 8 715 24 q 663 -7 686 -7 q 611 33 625 -7 l 553 215 l 201 215 l 143 29 q 126 3 139 14 q 93 -7 113 -7 q 59 8 72 -7 q 46 43 46 22 q 49 58 46 47 l 313 868 q 381 919 331 919 q 447 868 429 919 l 711 65 m 540 1014 q 549 994 549 1006 q 540 975 549 983 q 521 967 532 967 q 499 976 508 967 l 379 1083 l 260 975 q 239 967 251 967 q 220 974 228 967 q 213 993 213 982 q 219 1013 213 1003 l 338 1156 q 355 1172 344 1165 q 381 1179 365 1179 q 407 1172 396 1179 q 425 1156 418 1165 l 540 1014 z "},"Ã":{"ha":761,"x_min":46,"x_max":715,"o":"m 231 307 l 525 307 l 376 769 l 231 307 m 711 65 q 715 46 715 54 q 701 8 715 24 q 663 -7 686 -7 q 611 33 625 -7 l 553 215 l 201 215 l 143 29 q 126 3 139 14 q 93 -7 113 -7 q 59 8 72 -7 q 46 43 46 22 q 49 58 46 47 l 313 868 q 381 919 331 919 q 447 868 429 919 l 711 65 m 531 1097 q 558 1119 533 1119 q 590 1076 590 1119 q 566 999 590 1032 q 492 967 542 967 q 447 975 468 967 q 403 996 425 983 l 347 1026 q 320 1040 335 1033 q 292 1046 306 1046 q 263 1038 274 1046 q 247 1019 253 1029 q 238 997 240 1008 q 235 981 236 986 q 206 960 228 960 q 172 1000 172 960 q 203 1083 172 1049 q 288 1117 235 1117 q 368 1093 325 1117 l 425 1063 q 457 1045 440 1053 q 488 1038 474 1038 q 520 1056 513 1038 q 531 1097 528 1075 z "},"Ä":{"ha":761,"x_min":46,"x_max":715,"o":"m 231 307 l 525 307 l 376 769 l 231 307 m 711 65 q 715 46 715 54 q 701 8 715 24 q 663 -7 686 -7 q 611 33 625 -7 l 553 215 l 201 215 l 143 29 q 126 3 139 14 q 93 -7 113 -7 q 59 8 72 -7 q 46 43 46 22 q 49 58 46 47 l 313 868 q 381 919 331 919 q 447 868 429 919 l 711 65 m 242 1058 q 260 1101 242 1083 q 304 1118 278 1118 q 346 1101 329 1118 q 363 1058 363 1083 q 346 1014 363 1032 q 304 996 329 996 q 260 1014 278 996 q 242 1058 242 1032 m 400 1058 q 418 1101 400 1083 q 461 1118 436 1118 q 503 1101 486 1118 q 521 1058 521 1083 q 503 1014 521 1032 q 461 996 486 996 q 418 1014 436 996 q 400 1058 400 1032 z "},"Å":{"ha":761,"x_min":46,"x_max":715,"o":"m 711 65 q 715 46 715 54 q 701 8 715 24 q 663 -7 686 -7 q 611 33 625 -7 l 553 215 l 201 215 l 143 29 q 126 3 139 14 q 93 -7 113 -7 q 59 8 72 -7 q 46 43 46 22 q 49 58 46 47 l 313 868 q 313 870 313 869 q 314 874 314 871 q 263 922 282 890 q 244 990 244 953 q 283 1085 244 1046 q 381 1124 321 1124 q 478 1085 440 1124 q 517 990 517 1046 q 497 920 517 951 q 444 872 478 889 l 447 868 l 711 65 m 231 307 l 525 307 l 376 769 l 231 307 m 381 914 q 432 936 413 914 q 451 990 451 958 q 432 1044 451 1022 q 381 1067 413 1067 q 329 1044 349 1067 q 310 990 310 1022 q 329 936 310 958 q 381 914 349 914 z "},"Æ":{"ha":1119,"x_min":33,"x_max":1058,"o":"m 517 294 l 517 815 l 260 294 l 517 294 m 517 203 l 217 203 l 128 21 q 81 -7 114 -7 q 47 8 60 -7 q 33 42 33 22 q 39 67 33 56 l 442 869 q 472 901 453 889 q 513 913 490 913 l 1003 913 q 1035 899 1022 913 q 1047 865 1047 885 q 1035 831 1047 844 q 1003 817 1022 817 l 622 817 l 622 514 l 969 514 q 1001 499 989 514 q 1014 465 1014 485 q 1001 432 1014 444 q 969 419 989 419 l 622 419 l 622 96 l 1013 96 q 1046 82 1033 96 q 1058 47 1058 68 q 1046 13 1058 26 q 1013 0 1033 0 l 568 0 q 531 14 544 0 q 517 51 517 28 l 517 203 z "},"Ç":{"ha":761,"x_min":93,"x_max":686,"o":"m 401 -62 q 485 -89 456 -62 q 514 -160 514 -115 q 483 -233 514 -207 q 401 -260 453 -260 l 290 -260 q 268 -251 276 -260 q 260 -229 260 -242 q 290 -199 260 -199 l 400 -199 q 428 -190 417 -199 q 440 -161 440 -181 q 428 -133 440 -142 q 400 -124 417 -124 l 338 -124 q 313 -114 321 -124 q 310 -87 304 -104 l 332 -10 q 158 83 224 7 q 93 278 93 158 l 93 635 q 114 756 93 701 q 174 848 135 810 q 268 906 213 886 q 392 926 324 926 q 507 909 454 926 q 598 859 560 892 q 658 780 636 826 q 685 675 681 733 q 672 636 686 651 q 633 621 658 621 q 583 663 588 621 q 529 784 576 738 q 392 831 482 831 q 249 776 300 831 q 199 638 199 721 l 199 275 q 249 137 199 192 q 392 82 300 82 q 530 129 481 82 q 583 254 579 176 q 598 288 585 275 q 633 300 611 300 q 672 283 657 300 q 685 242 686 265 q 660 136 682 183 q 600 56 638 89 q 511 6 563 24 q 399 -14 460 -12 l 385 -62 l 401 -62 z "},"È":{"ha":714,"x_min":115,"x_max":654,"o":"m 408 1032 q 418 1019 415 1025 q 421 1004 421 1013 q 411 981 421 990 q 386 971 401 971 q 365 978 375 971 l 232 1081 q 215 1117 215 1094 q 228 1150 215 1136 q 261 1164 242 1164 q 296 1147 279 1164 l 408 1032 m 221 419 l 221 96 l 607 96 q 642 82 629 96 q 654 47 654 68 q 642 13 654 26 q 607 0 629 0 l 167 0 q 129 14 143 0 q 115 51 115 28 l 115 861 q 129 899 115 885 q 167 913 143 913 l 596 913 q 630 899 617 913 q 643 865 643 886 q 630 830 643 843 q 596 817 617 817 l 221 817 l 221 514 l 563 514 q 596 500 583 514 q 608 465 608 486 q 596 432 608 444 q 563 419 583 419 l 221 419 z "},"É":{"ha":714,"x_min":115,"x_max":654,"o":"m 221 419 l 221 96 l 607 96 q 642 82 629 96 q 654 47 654 68 q 642 13 654 26 q 607 0 629 0 l 167 0 q 129 14 143 0 q 115 51 115 28 l 115 861 q 129 899 115 885 q 167 913 143 913 l 596 913 q 630 899 617 913 q 643 865 643 886 q 630 830 643 843 q 596 817 617 817 l 221 817 l 221 514 l 563 514 q 596 500 583 514 q 608 465 608 486 q 596 432 608 444 q 563 419 583 419 l 221 419 m 465 1147 q 500 1164 482 1164 q 533 1150 519 1164 q 546 1117 546 1136 q 529 1081 546 1094 l 396 978 q 375 971 386 971 q 350 981 360 971 q 340 1004 340 990 q 343 1019 340 1013 q 353 1032 346 1025 l 465 1147 z "},"Ê":{"ha":714,"x_min":115,"x_max":654,"o":"m 542 1014 q 550 994 550 1006 q 542 975 550 983 q 522 967 533 967 q 500 976 510 967 l 381 1083 l 261 975 q 240 967 253 967 q 222 974 229 967 q 214 993 214 982 q 221 1013 214 1003 l 339 1156 q 356 1172 346 1165 q 382 1179 367 1179 q 408 1172 397 1179 q 426 1156 419 1165 l 542 1014 m 221 419 l 221 96 l 607 96 q 642 82 629 96 q 654 47 654 68 q 642 13 654 26 q 607 0 629 0 l 167 0 q 129 14 143 0 q 115 51 115 28 l 115 861 q 129 899 115 885 q 167 913 143 913 l 596 913 q 630 899 617 913 q 643 865 643 886 q 630 830 643 843 q 596 817 617 817 l 221 817 l 221 514 l 563 514 q 596 500 583 514 q 608 465 608 486 q 596 432 608 444 q 563 419 583 419 l 221 419 z "},"Ë":{"ha":714,"x_min":115,"x_max":654,"o":"m 221 419 l 221 96 l 607 96 q 642 82 629 96 q 654 47 654 68 q 642 13 654 26 q 607 0 629 0 l 167 0 q 129 14 143 0 q 115 51 115 28 l 115 861 q 129 899 115 885 q 167 913 143 913 l 596 913 q 630 899 617 913 q 643 865 643 886 q 630 830 643 843 q 596 817 617 817 l 221 817 l 221 514 l 563 514 q 596 500 583 514 q 608 465 608 486 q 596 432 608 444 q 563 419 583 419 l 221 419 m 242 1058 q 260 1101 242 1083 q 304 1118 278 1118 q 346 1101 329 1118 q 363 1058 363 1083 q 346 1014 363 1032 q 304 996 329 996 q 260 1014 278 996 q 242 1058 242 1032 m 400 1058 q 418 1101 400 1083 q 461 1118 436 1118 q 503 1101 486 1118 q 521 1058 521 1083 q 503 1014 521 1032 q 461 996 486 996 q 418 1014 436 996 q 400 1058 400 1032 z "},"Ì":{"ha":336,"x_min":4,"x_max":221,"o":"m 221 44 q 206 7 221 21 q 168 -7 192 -7 q 130 7 144 -7 q 115 44 115 21 l 115 868 q 130 906 115 892 q 168 919 144 919 q 206 906 192 919 q 221 868 221 892 l 221 44 m 197 1032 q 207 1019 204 1025 q 210 1004 210 1013 q 200 981 210 990 q 175 971 190 971 q 154 978 164 971 l 21 1081 q 4 1117 4 1094 q 17 1150 4 1136 q 50 1164 31 1164 q 85 1147 68 1164 l 197 1032 z "},"Í":{"ha":336,"x_min":115,"x_max":333,"o":"m 221 44 q 206 7 221 21 q 168 -7 192 -7 q 130 7 144 -7 q 115 44 115 21 l 115 868 q 130 906 115 892 q 168 919 144 919 q 206 906 192 919 q 221 868 221 892 l 221 44 m 253 1147 q 288 1164 269 1164 q 320 1150 307 1164 q 333 1117 333 1136 q 317 1081 333 1094 l 183 978 q 163 971 174 971 q 138 981 147 971 q 128 1004 128 990 q 131 1019 128 1013 q 140 1032 133 1025 l 253 1147 z "},"Î":{"ha":336,"x_min":0,"x_max":336,"o":"m 221 44 q 206 7 221 21 q 168 -7 192 -7 q 130 7 144 -7 q 115 44 115 21 l 115 868 q 130 906 115 892 q 168 919 144 919 q 206 906 192 919 q 221 868 221 892 l 221 44 m 328 1014 q 336 994 336 1006 q 328 975 336 983 q 308 967 319 967 q 286 976 296 967 l 167 1083 l 47 975 q 26 967 39 967 q 8 974 15 967 q 0 993 0 982 q 7 1013 0 1003 l 125 1156 q 142 1172 132 1165 q 168 1179 153 1179 q 194 1172 183 1179 q 213 1156 206 1165 l 328 1014 z "},"Ï":{"ha":336,"x_min":28,"x_max":307,"o":"m 221 44 q 206 7 221 21 q 168 -7 192 -7 q 130 7 144 -7 q 115 44 115 21 l 115 868 q 130 906 115 892 q 168 919 144 919 q 206 906 192 919 q 221 868 221 892 l 221 44 m 28 1058 q 46 1101 28 1083 q 90 1118 64 1118 q 132 1101 115 1118 q 149 1058 149 1083 q 132 1014 149 1032 q 90 996 115 996 q 46 1014 64 996 q 28 1058 28 1032 m 186 1058 q 204 1101 186 1083 q 247 1118 222 1118 q 290 1101 272 1118 q 307 1058 307 1083 q 290 1014 307 1032 q 247 996 272 996 q 204 1014 222 996 q 186 1058 186 1032 z "},"Ð":{"ha":804,"x_min":11,"x_max":715,"o":"m 408 913 q 535 892 478 913 q 632 832 592 871 q 694 738 672 793 q 715 614 715 682 l 715 299 q 694 174 715 229 q 632 81 672 119 q 535 21 592 42 q 408 0 478 0 l 171 0 q 133 14 147 0 q 119 51 119 28 l 119 421 l 53 421 q 22 433 33 421 q 11 464 11 444 q 22 497 11 483 q 53 510 33 510 l 119 510 l 119 861 q 133 899 119 885 q 171 913 147 913 l 408 913 m 225 817 l 225 510 l 372 510 q 403 497 392 510 q 415 464 415 483 q 403 433 415 444 q 372 421 392 421 l 225 421 l 225 96 l 408 96 q 558 152 506 96 q 610 296 610 208 l 610 617 q 558 760 610 704 q 408 817 506 817 l 225 817 z "},"Ñ":{"ha":813,"x_min":115,"x_max":697,"o":"m 556 1097 q 583 1119 558 1119 q 615 1076 615 1119 q 591 999 615 1032 q 517 967 567 967 q 472 975 493 967 q 428 996 450 983 l 372 1026 q 345 1040 360 1033 q 317 1046 331 1046 q 288 1038 299 1046 q 272 1019 278 1029 q 263 997 265 1008 q 260 981 261 986 q 231 960 253 960 q 197 1000 197 960 q 228 1083 197 1049 q 313 1117 260 1117 q 393 1093 350 1117 l 450 1063 q 482 1045 465 1053 q 513 1038 499 1038 q 545 1056 538 1038 q 556 1097 553 1075 m 697 44 q 683 7 697 21 q 646 -7 669 -7 q 613 3 625 -7 q 593 28 601 14 l 214 706 l 214 40 q 199 6 214 19 q 164 -7 185 -7 q 129 6 143 -7 q 115 40 115 19 l 115 868 q 131 906 115 892 q 169 919 146 919 q 203 911 192 919 q 226 881 215 903 l 599 218 l 599 872 q 613 906 599 893 q 647 919 626 919 q 683 906 668 919 q 697 872 697 893 l 697 44 z "},"Ò":{"ha":781,"x_min":90,"x_max":690,"o":"m 417 1032 q 426 1019 424 1025 q 429 1004 429 1013 q 419 981 429 990 q 394 971 410 971 q 374 978 383 971 l 240 1081 q 224 1117 224 1094 q 237 1150 224 1136 q 269 1164 250 1164 q 304 1147 288 1164 l 417 1032 m 196 275 q 247 137 196 192 q 390 82 297 82 q 533 137 483 82 q 583 275 583 192 l 583 638 q 533 776 583 721 q 390 831 483 831 q 247 776 297 831 q 196 638 196 721 l 196 275 m 690 278 q 668 157 690 211 q 606 65 646 103 q 512 6 567 26 q 390 -14 457 -14 q 268 6 324 -14 q 173 65 213 26 q 112 157 133 103 q 90 278 90 211 l 90 635 q 111 756 90 701 q 172 848 132 810 q 266 906 211 886 q 390 926 321 926 q 512 906 457 926 q 606 848 567 886 q 668 756 646 810 q 690 635 690 701 l 690 278 z "},"Ó":{"ha":781,"x_min":90,"x_max":690,"o":"m 475 1147 q 510 1164 492 1164 q 542 1150 529 1164 q 556 1117 556 1136 q 539 1081 556 1094 l 406 978 q 385 971 396 971 q 360 981 369 971 q 350 1004 350 990 q 353 1019 350 1013 q 363 1032 356 1025 l 475 1147 m 196 275 q 247 137 196 192 q 390 82 297 82 q 533 137 483 82 q 583 275 583 192 l 583 638 q 533 776 583 721 q 390 831 483 831 q 247 776 297 831 q 196 638 196 721 l 196 275 m 690 278 q 668 157 690 211 q 606 65 646 103 q 512 6 567 26 q 390 -14 457 -14 q 268 6 324 -14 q 173 65 213 26 q 112 157 133 103 q 90 278 90 211 l 90 635 q 111 756 90 701 q 172 848 132 810 q 266 906 211 886 q 390 926 321 926 q 512 906 457 926 q 606 848 567 886 q 668 756 646 810 q 690 635 690 701 l 690 278 z "},"Ô":{"ha":781,"x_min":90,"x_max":690,"o":"m 550 1014 q 558 994 558 1006 q 550 975 558 983 q 531 967 542 967 q 508 976 518 967 l 389 1083 l 269 975 q 249 967 261 967 q 230 974 238 967 q 222 993 222 982 q 229 1013 222 1003 l 347 1156 q 365 1172 354 1165 q 390 1179 375 1179 q 417 1172 406 1179 q 435 1156 428 1165 l 550 1014 m 196 275 q 247 137 196 192 q 390 82 297 82 q 533 137 483 82 q 583 275 583 192 l 583 638 q 533 776 583 721 q 390 831 483 831 q 247 776 297 831 q 196 638 196 721 l 196 275 m 690 278 q 668 157 690 211 q 606 65 646 103 q 512 6 567 26 q 390 -14 457 -14 q 268 6 324 -14 q 173 65 213 26 q 112 157 133 103 q 90 278 90 211 l 90 635 q 111 756 90 701 q 172 848 132 810 q 266 906 211 886 q 390 926 321 926 q 512 906 457 926 q 606 848 567 886 q 668 756 646 810 q 690 635 690 701 l 690 278 z "},"Õ":{"ha":781,"x_min":90,"x_max":690,"o":"m 196 275 q 247 137 196 192 q 390 82 297 82 q 533 137 483 82 q 583 275 583 192 l 583 638 q 533 776 583 721 q 390 831 483 831 q 247 776 297 831 q 196 638 196 721 l 196 275 m 690 278 q 668 157 690 211 q 606 65 646 103 q 512 6 567 26 q 390 -14 457 -14 q 268 6 324 -14 q 173 65 213 26 q 112 157 133 103 q 90 278 90 211 l 90 635 q 111 756 90 701 q 172 848 132 810 q 266 906 211 886 q 390 926 321 926 q 512 906 457 926 q 606 848 567 886 q 668 756 646 810 q 690 635 690 701 l 690 278 m 540 1097 q 568 1119 543 1119 q 600 1076 600 1119 q 576 999 600 1032 q 501 967 551 967 q 456 975 478 967 q 413 996 435 983 l 357 1026 q 330 1040 344 1033 q 301 1046 315 1046 q 273 1038 283 1046 q 256 1019 263 1029 q 248 997 250 1008 q 244 981 246 986 q 215 960 238 960 q 182 1000 182 960 q 213 1083 182 1049 q 297 1117 244 1117 q 378 1093 335 1117 l 435 1063 q 467 1045 450 1053 q 497 1038 483 1038 q 530 1056 522 1038 q 540 1097 538 1075 z "},"Ö":{"ha":781,"x_min":90,"x_max":690,"o":"m 196 275 q 247 137 196 192 q 390 82 297 82 q 533 137 483 82 q 583 275 583 192 l 583 638 q 533 776 583 721 q 390 831 483 831 q 247 776 297 831 q 196 638 196 721 l 196 275 m 690 278 q 668 157 690 211 q 606 65 646 103 q 512 6 567 26 q 390 -14 457 -14 q 268 6 324 -14 q 173 65 213 26 q 112 157 133 103 q 90 278 90 211 l 90 635 q 111 756 90 701 q 172 848 132 810 q 266 906 211 886 q 390 926 321 926 q 512 906 457 926 q 606 848 567 886 q 668 756 646 810 q 690 635 690 701 l 690 278 m 251 1058 q 269 1101 251 1083 q 314 1118 288 1118 q 356 1101 339 1118 q 372 1058 372 1083 q 356 1014 372 1032 q 314 996 339 996 q 269 1014 288 996 q 251 1058 251 1032 m 410 1058 q 428 1101 410 1083 q 471 1118 446 1118 q 513 1101 496 1118 q 531 1058 531 1083 q 513 1014 531 1032 q 471 996 496 996 q 428 1014 446 996 q 410 1058 410 1032 z "},"×":{"ha":589,"x_min":96,"x_max":510,"o":"m 228 456 l 111 572 q 97 606 96 588 q 113 640 97 625 q 178 640 144 672 l 296 522 l 413 640 q 479 640 446 671 q 479 574 510 607 l 361 456 l 479 339 q 494 305 494 324 q 478 271 493 286 q 446 256 463 256 q 414 271 429 256 l 294 389 l 176 271 q 111 271 143 240 q 96 304 96 286 q 111 338 96 322 l 228 456 z "},"Ø":{"ha":781,"x_min":90,"x_max":690,"o":"m 615 839 q 671 750 651 801 q 690 635 690 699 l 690 278 q 668 157 690 211 q 606 65 646 103 q 512 6 567 26 q 390 -14 457 -14 q 221 28 292 -14 l 183 -51 q 149 -75 174 -75 q 124 -65 133 -75 q 115 -39 115 -54 q 118 -22 115 -31 l 164 74 q 109 163 128 111 q 90 278 90 214 l 90 635 q 111 756 90 701 q 172 848 132 810 q 266 906 211 886 q 390 926 321 926 q 558 883 485 926 l 597 965 q 611 982 603 975 q 632 989 619 989 q 657 978 647 989 q 667 953 667 968 q 663 936 667 942 l 615 839 m 586 639 q 564 738 586 693 l 263 118 q 390 79 313 79 q 535 134 485 79 q 586 274 586 189 l 586 639 m 194 274 q 217 174 194 217 l 518 793 q 463 823 494 813 q 390 833 431 833 q 245 778 296 833 q 194 639 194 724 l 194 274 z "},"Ù":{"ha":804,"x_min":108,"x_max":696,"o":"m 429 1032 q 439 1019 436 1025 q 442 1004 442 1013 q 432 981 442 990 q 407 971 422 971 q 386 978 396 971 l 253 1081 q 236 1117 236 1094 q 249 1150 236 1136 q 282 1164 263 1164 q 317 1147 300 1164 l 429 1032 m 643 919 q 681 906 667 919 q 696 868 696 892 l 696 278 q 674 157 696 211 q 614 65 653 103 q 521 6 575 26 q 401 -14 467 -14 q 282 6 336 -14 q 190 65 228 26 q 130 157 151 103 q 108 278 108 211 l 108 868 q 123 906 108 892 q 161 919 138 919 q 199 906 185 919 q 214 868 214 892 l 214 275 q 263 137 214 192 q 401 82 311 82 q 542 137 493 82 q 590 275 590 192 l 590 868 q 605 906 590 892 q 643 919 619 919 z "},"Ú":{"ha":804,"x_min":108,"x_max":696,"o":"m 643 919 q 681 906 667 919 q 696 868 696 892 l 696 278 q 674 157 696 211 q 614 65 653 103 q 521 6 575 26 q 401 -14 467 -14 q 282 6 336 -14 q 190 65 228 26 q 130 157 151 103 q 108 278 108 211 l 108 868 q 123 906 108 892 q 161 919 138 919 q 199 906 185 919 q 214 868 214 892 l 214 275 q 263 137 214 192 q 401 82 311 82 q 542 137 493 82 q 590 275 590 192 l 590 868 q 605 906 590 892 q 643 919 619 919 m 486 1147 q 521 1164 503 1164 q 553 1150 540 1164 q 567 1117 567 1136 q 550 1081 567 1094 l 417 978 q 396 971 407 971 q 371 981 381 971 q 361 1004 361 990 q 364 1019 361 1013 q 374 1032 367 1025 l 486 1147 z "},"Û":{"ha":804,"x_min":108,"x_max":696,"o":"m 561 1014 q 569 994 569 1006 q 561 975 569 983 q 542 967 553 967 q 519 976 529 967 l 400 1083 l 281 975 q 260 967 272 967 q 241 974 249 967 q 233 993 233 982 q 240 1013 233 1003 l 358 1156 q 376 1172 365 1165 q 401 1179 386 1179 q 428 1172 417 1179 q 446 1156 439 1165 l 561 1014 m 643 919 q 681 906 667 919 q 696 868 696 892 l 696 278 q 674 157 696 211 q 614 65 653 103 q 521 6 575 26 q 401 -14 467 -14 q 282 6 336 -14 q 190 65 228 26 q 130 157 151 103 q 108 278 108 211 l 108 868 q 123 906 108 892 q 161 919 138 919 q 199 906 185 919 q 214 868 214 892 l 214 275 q 263 137 214 192 q 401 82 311 82 q 542 137 493 82 q 590 275 590 192 l 590 868 q 605 906 590 892 q 643 919 619 919 z "},"Ü":{"ha":804,"x_min":108,"x_max":696,"o":"m 643 919 q 681 906 667 919 q 696 868 696 892 l 696 278 q 674 157 696 211 q 614 65 653 103 q 521 6 575 26 q 401 -14 467 -14 q 282 6 336 -14 q 190 65 228 26 q 130 157 151 103 q 108 278 108 211 l 108 868 q 123 906 108 892 q 161 919 138 919 q 199 906 185 919 q 214 868 214 892 l 214 275 q 263 137 214 192 q 401 82 311 82 q 542 137 493 82 q 590 275 590 192 l 590 868 q 605 906 590 892 q 643 919 619 919 m 261 1058 q 279 1101 261 1083 q 324 1118 297 1118 q 365 1101 349 1118 q 382 1058 382 1083 q 365 1014 382 1032 q 324 996 349 996 q 279 1014 297 996 q 261 1058 261 1032 m 419 1058 q 438 1101 419 1083 q 481 1118 456 1118 q 523 1101 506 1118 q 540 1058 540 1083 q 523 1014 540 1032 q 481 996 506 996 q 438 1014 456 996 q 419 1058 419 1032 z "},"Ý":{"ha":678,"x_min":44,"x_max":638,"o":"m 392 364 l 392 44 q 377 7 392 21 q 339 -7 363 -7 q 301 7 315 -7 q 286 44 286 21 l 286 364 l 50 844 q 44 868 44 854 q 59 904 44 889 q 94 919 74 919 q 140 892 126 919 l 342 468 l 546 893 q 564 914 553 908 q 589 919 575 919 q 622 906 608 919 q 636 876 636 893 q 635 861 638 869 q 629 846 632 853 l 392 364 m 425 1147 q 460 1164 442 1164 q 492 1150 479 1164 q 506 1117 506 1136 q 489 1081 506 1094 l 356 978 q 335 971 346 971 q 310 981 319 971 q 300 1004 300 990 q 303 1019 300 1013 q 313 1032 306 1025 l 425 1147 z "},"Þ":{"ha":760,"x_min":115,"x_max":703,"o":"m 221 749 l 394 749 q 518 728 461 749 q 616 669 575 707 q 680 578 657 632 q 703 458 703 525 q 680 337 703 392 q 616 243 657 282 q 518 183 575 204 q 394 163 461 163 l 221 163 l 221 44 q 206 7 221 21 q 168 -7 192 -7 q 130 7 144 -7 q 115 44 115 21 l 115 868 q 130 906 115 892 q 168 919 144 919 q 206 906 192 919 q 221 868 221 892 l 221 749 m 221 656 l 221 256 l 388 256 q 539 310 483 256 q 594 457 594 365 q 539 602 594 549 q 388 656 483 656 l 221 656 z "},"ß":{"ha":700,"x_min":100,"x_max":633,"o":"m 299 42 q 308 73 299 60 q 335 86 317 86 l 353 86 q 481 135 433 86 q 528 264 528 185 q 517 337 528 303 q 483 396 506 371 q 424 435 460 421 q 336 449 388 449 q 308 461 318 449 q 299 492 299 474 q 309 522 299 510 q 338 535 319 535 q 462 580 418 535 q 506 696 506 625 q 467 810 506 767 q 353 853 428 853 q 281 840 310 853 q 234 805 251 828 q 209 751 217 782 q 201 683 201 721 l 201 42 q 188 6 201 19 q 151 -7 174 -7 q 115 6 129 -7 q 100 42 100 19 l 100 676 q 166 872 100 803 q 354 940 232 940 q 458 924 411 940 q 540 876 506 907 q 592 801 574 844 q 611 704 611 757 q 574 575 611 628 q 472 497 538 522 l 472 494 q 590 411 547 471 q 633 260 633 351 q 613 152 633 200 q 555 70 592 104 q 468 17 518 36 q 361 -1 418 -1 l 340 -1 q 310 10 321 -1 q 299 42 299 22 z "},"à":{"ha":692,"x_min":79,"x_max":592,"o":"m 331 76 q 448 124 406 76 q 490 243 490 172 l 490 435 q 448 554 490 506 q 331 603 406 603 q 219 557 257 603 q 181 446 181 511 l 181 233 q 218 122 181 167 q 331 76 256 76 m 499 78 q 421 10 468 35 q 314 -14 374 -14 q 141 54 203 -14 q 79 238 79 122 l 79 442 q 141 625 79 557 q 314 693 203 693 q 422 669 375 693 q 499 601 468 644 l 506 650 q 522 678 511 669 q 549 686 533 686 q 581 674 569 686 q 592 640 592 661 l 592 39 q 549 -7 592 -7 q 521 1 533 -7 q 506 29 508 8 l 499 78 m 364 829 q 376 800 376 814 q 367 776 376 786 q 342 767 357 767 q 321 774 331 767 l 188 876 q 171 913 171 893 q 184 947 171 933 q 217 960 197 960 q 251 944 236 960 l 364 829 z "},"á":{"ha":692,"x_min":79,"x_max":592,"o":"m 331 76 q 448 124 406 76 q 490 243 490 172 l 490 435 q 448 554 490 506 q 331 603 406 603 q 219 557 257 603 q 181 446 181 511 l 181 233 q 218 122 181 167 q 331 76 256 76 m 499 78 q 421 10 468 35 q 314 -14 374 -14 q 141 54 203 -14 q 79 238 79 122 l 79 442 q 141 625 79 557 q 314 693 203 693 q 422 669 375 693 q 499 601 468 644 l 506 650 q 522 678 511 669 q 549 686 533 686 q 581 674 569 686 q 592 640 592 661 l 592 39 q 549 -7 592 -7 q 521 1 533 -7 q 506 29 508 8 l 499 78 m 419 944 q 454 960 435 960 q 487 947 474 960 q 500 913 500 933 q 483 876 500 893 l 350 774 q 329 767 340 767 q 304 776 314 767 q 294 800 294 786 q 307 829 294 814 l 419 944 z "},"â":{"ha":692,"x_min":79,"x_max":592,"o":"m 331 76 q 448 124 406 76 q 490 243 490 172 l 490 435 q 448 554 490 506 q 331 603 406 603 q 219 557 257 603 q 181 446 181 511 l 181 233 q 218 122 181 167 q 331 76 256 76 m 499 78 q 421 10 468 35 q 314 -14 374 -14 q 141 54 203 -14 q 79 238 79 122 l 79 442 q 141 625 79 557 q 314 693 203 693 q 422 669 375 693 q 499 601 468 644 l 506 650 q 522 678 511 669 q 549 686 533 686 q 581 674 569 686 q 592 640 592 661 l 592 39 q 549 -7 592 -7 q 521 1 533 -7 q 506 29 508 8 l 499 78 m 494 810 q 503 790 503 801 q 494 771 503 779 q 475 763 486 763 q 453 772 463 763 l 333 879 l 214 771 q 193 763 206 763 q 174 771 182 763 q 167 790 167 779 q 174 808 167 799 l 292 951 q 309 968 299 961 q 335 975 319 975 q 361 968 350 975 q 379 951 372 961 l 494 810 z "},"ã":{"ha":692,"x_min":79,"x_max":592,"o":"m 331 76 q 448 124 406 76 q 490 243 490 172 l 490 435 q 448 554 490 506 q 331 603 406 603 q 219 557 257 603 q 181 446 181 511 l 181 233 q 218 122 181 167 q 331 76 256 76 m 499 78 q 421 10 468 35 q 314 -14 374 -14 q 141 54 203 -14 q 79 238 79 122 l 79 442 q 141 625 79 557 q 314 693 203 693 q 422 669 375 693 q 499 601 468 644 l 506 650 q 522 678 511 669 q 549 686 533 686 q 581 674 569 686 q 592 640 592 661 l 592 39 q 549 -7 592 -7 q 521 1 533 -7 q 506 29 508 8 l 499 78 m 485 903 q 513 925 488 925 q 544 883 544 925 q 520 805 544 838 q 446 772 496 772 q 401 781 422 772 q 357 801 379 790 l 301 832 q 274 845 289 839 q 246 851 260 851 q 217 843 228 851 q 201 824 207 835 q 192 803 194 814 q 189 786 190 792 q 178 772 186 778 q 160 765 171 765 q 135 776 144 765 q 126 807 126 788 q 158 890 126 856 q 242 924 189 924 q 322 900 279 924 l 379 868 q 411 851 394 858 q 442 844 428 844 q 474 863 467 844 q 485 903 482 881 z "},"ä":{"ha":692,"x_min":79,"x_max":592,"o":"m 331 76 q 448 124 406 76 q 490 243 490 172 l 490 435 q 448 554 490 506 q 331 603 406 603 q 219 557 257 603 q 181 446 181 511 l 181 233 q 218 122 181 167 q 331 76 256 76 m 499 78 q 421 10 468 35 q 314 -14 374 -14 q 141 54 203 -14 q 79 238 79 122 l 79 442 q 141 625 79 557 q 314 693 203 693 q 422 669 375 693 q 499 601 468 644 l 506 650 q 522 678 511 669 q 549 686 533 686 q 581 674 569 686 q 592 640 592 661 l 592 39 q 549 -7 592 -7 q 521 1 533 -7 q 506 29 508 8 l 499 78 m 196 843 q 214 885 196 868 q 258 903 232 903 q 300 885 283 903 q 317 843 317 868 q 300 799 317 817 q 258 781 283 781 q 214 799 232 781 q 196 843 196 817 m 354 843 q 372 885 354 868 q 415 903 390 903 q 458 885 440 903 q 475 843 475 868 q 458 799 475 817 q 415 781 440 781 q 372 799 390 781 q 354 843 354 817 z "},"å":{"ha":692,"x_min":79,"x_max":592,"o":"m 331 76 q 448 124 406 76 q 490 243 490 172 l 490 435 q 448 554 490 506 q 331 603 406 603 q 219 557 257 603 q 181 446 181 511 l 181 233 q 218 122 181 167 q 331 76 256 76 m 499 78 q 421 10 468 35 q 314 -14 374 -14 q 141 54 203 -14 q 79 238 79 122 l 79 442 q 141 625 79 557 q 314 693 203 693 q 422 669 375 693 q 499 601 468 644 l 506 650 q 522 678 511 669 q 549 686 533 686 q 581 674 569 686 q 592 640 592 661 l 592 39 q 549 -7 592 -7 q 521 1 533 -7 q 506 29 508 8 l 499 78 m 335 790 q 386 813 367 790 q 406 867 406 835 q 386 920 406 899 q 335 942 367 942 q 283 920 303 942 q 264 867 264 899 q 283 813 264 835 q 335 790 303 790 m 335 733 q 237 773 275 733 q 199 867 199 813 q 237 960 199 921 q 335 1000 275 1000 q 433 960 394 1000 q 471 867 471 921 q 433 773 471 813 q 335 733 394 733 z "},"æ":{"ha":1056,"x_min":65,"x_max":983,"o":"m 307 72 q 428 120 385 72 q 472 239 472 168 l 472 292 l 311 292 q 263 288 288 292 q 217 273 238 285 q 183 240 196 261 q 169 181 169 218 q 203 103 169 133 q 307 72 236 72 m 574 406 l 886 406 l 886 439 q 846 561 886 513 q 731 610 806 610 q 615 561 656 610 q 574 439 574 513 l 574 406 m 732 69 q 844 108 807 69 q 892 196 882 146 q 905 223 894 213 q 935 233 915 233 q 969 217 957 233 q 979 178 982 201 q 901 39 968 92 q 732 -14 833 -14 q 597 19 654 -14 q 513 113 540 51 q 426 19 483 53 q 290 -14 369 -14 q 126 37 186 -14 q 65 183 65 88 q 128 325 65 279 q 304 371 192 371 l 472 371 l 472 457 q 433 564 472 521 q 321 607 394 607 q 214 569 250 607 q 168 483 178 532 q 153 456 165 467 q 122 446 142 446 q 88 462 100 446 q 78 501 75 478 q 154 640 89 586 q 324 693 219 693 q 445 665 393 693 q 526 585 497 636 q 610 665 558 638 q 731 693 663 693 q 833 675 786 693 q 913 622 879 657 q 965 539 946 588 q 983 429 983 490 l 983 376 q 969 340 983 353 q 932 326 956 326 l 574 326 l 574 229 q 615 115 574 161 q 732 69 656 69 z "},"ç":{"ha":657,"x_min":76,"x_max":590,"o":"m 344 -62 q 428 -89 399 -62 q 457 -160 457 -115 q 426 -233 457 -207 q 344 -260 396 -260 l 233 -260 q 211 -251 219 -260 q 203 -229 203 -242 q 233 -199 203 -199 l 343 -199 q 372 -190 360 -199 q 383 -161 383 -181 q 372 -133 383 -142 q 343 -124 360 -124 l 281 -124 q 256 -114 264 -124 q 253 -87 247 -104 l 275 -8 q 130 76 183 8 q 76 250 76 144 l 76 429 q 147 622 76 551 q 336 693 218 693 q 507 640 439 693 q 585 499 575 586 q 576 459 588 476 q 539 442 564 442 q 492 481 497 442 q 444 570 482 536 q 336 604 406 604 q 218 556 258 604 q 178 436 178 508 l 178 242 q 218 122 178 169 q 336 74 258 74 q 446 108 410 74 q 493 203 482 142 q 540 243 501 243 q 577 226 564 243 q 588 188 590 210 q 510 42 576 94 q 342 -14 444 -11 l 328 -62 l 344 -62 z "},"è":{"ha":658,"x_min":76,"x_max":586,"o":"m 538 233 q 572 218 560 233 q 582 178 585 203 q 506 38 572 90 q 335 -14 439 -14 q 147 53 218 -14 q 76 239 76 121 l 76 429 q 95 539 76 490 q 148 622 114 588 q 229 675 182 657 q 335 693 276 693 q 437 675 390 693 q 517 622 483 657 q 568 539 550 588 q 586 429 586 490 l 586 376 q 573 340 586 353 q 536 326 560 326 l 176 326 l 176 229 q 218 115 176 161 q 336 69 260 69 q 449 107 411 69 q 494 196 488 144 q 538 233 500 233 m 176 406 l 490 406 l 490 439 q 450 561 490 513 q 335 610 410 610 q 217 561 258 610 q 176 439 176 513 l 176 406 m 360 829 q 372 800 372 814 q 363 776 372 786 q 338 767 353 767 q 317 774 326 767 l 183 876 q 167 913 167 893 q 180 947 167 933 q 213 960 193 960 q 247 944 232 960 l 360 829 z "},"é":{"ha":658,"x_min":76,"x_max":586,"o":"m 415 944 q 450 960 431 960 q 483 947 469 960 q 496 913 496 933 q 479 876 496 893 l 346 774 q 325 767 336 767 q 300 776 310 767 q 290 800 290 786 q 303 829 290 814 l 415 944 m 538 233 q 572 218 560 233 q 582 178 585 203 q 506 38 572 90 q 335 -14 439 -14 q 147 53 218 -14 q 76 239 76 121 l 76 429 q 95 539 76 490 q 148 622 114 588 q 229 675 182 657 q 335 693 276 693 q 437 675 390 693 q 517 622 483 657 q 568 539 550 588 q 586 429 586 490 l 586 376 q 573 340 586 353 q 536 326 560 326 l 176 326 l 176 229 q 218 115 176 161 q 336 69 260 69 q 449 107 411 69 q 494 196 488 144 q 538 233 500 233 m 176 406 l 490 406 l 490 439 q 450 561 490 513 q 335 610 410 610 q 217 561 258 610 q 176 439 176 513 l 176 406 z "},"ê":{"ha":658,"x_min":76,"x_max":586,"o":"m 492 810 q 500 790 500 801 q 492 771 500 779 q 472 763 483 763 q 450 772 460 763 l 331 879 l 211 771 q 190 763 203 763 q 172 771 179 763 q 164 790 164 779 q 171 808 164 799 l 289 951 q 306 968 296 961 q 332 975 317 975 q 358 968 347 975 q 376 951 369 961 l 492 810 m 538 233 q 572 218 560 233 q 582 178 585 203 q 506 38 572 90 q 335 -14 439 -14 q 147 53 218 -14 q 76 239 76 121 l 76 429 q 95 539 76 490 q 148 622 114 588 q 229 675 182 657 q 335 693 276 693 q 437 675 390 693 q 517 622 483 657 q 568 539 550 588 q 586 429 586 490 l 586 376 q 573 340 586 353 q 536 326 560 326 l 176 326 l 176 229 q 218 115 176 161 q 336 69 260 69 q 449 107 411 69 q 494 196 488 144 q 538 233 500 233 m 176 406 l 490 406 l 490 439 q 450 561 490 513 q 335 610 410 610 q 217 561 258 610 q 176 439 176 513 l 176 406 z "},"ë":{"ha":658,"x_min":76,"x_max":586,"o":"m 192 843 q 210 885 192 868 q 254 903 228 903 q 296 885 279 903 q 313 843 313 868 q 296 799 313 817 q 254 781 279 781 q 210 799 228 781 q 192 843 192 817 m 350 843 q 368 885 350 868 q 411 903 386 903 q 453 885 436 903 q 471 843 471 868 q 453 799 471 817 q 411 781 436 781 q 368 799 386 781 q 350 843 350 817 m 538 233 q 572 218 560 233 q 582 178 585 203 q 506 38 572 90 q 335 -14 439 -14 q 147 53 218 -14 q 76 239 76 121 l 76 429 q 95 539 76 490 q 148 622 114 588 q 229 675 182 657 q 335 693 276 693 q 437 675 390 693 q 517 622 483 657 q 568 539 550 588 q 586 429 586 490 l 586 376 q 573 340 586 353 q 536 326 560 326 l 176 326 l 176 229 q 218 115 176 161 q 336 69 260 69 q 449 107 411 69 q 494 196 488 144 q 538 233 500 233 m 176 406 l 490 406 l 490 439 q 450 561 490 513 q 335 610 410 610 q 217 561 258 610 q 176 439 176 513 l 176 406 z "},"ì":{"ha":301,"x_min":-14,"x_max":201,"o":"m 150 686 q 187 672 172 686 q 201 636 201 658 l 201 43 q 188 7 201 21 q 151 -7 174 -7 q 114 7 128 -7 q 100 43 100 21 l 100 636 q 114 672 100 658 q 150 686 128 686 m 179 829 q 192 800 192 814 q 182 776 192 786 q 157 767 172 767 q 136 774 146 767 l 3 876 q -14 913 -14 893 q -1 947 -14 933 q 32 960 13 960 q 67 944 51 960 l 179 829 z "},"í":{"ha":301,"x_min":100,"x_max":315,"o":"m 235 944 q 269 960 250 960 q 302 947 289 960 q 315 913 315 933 q 299 876 315 893 l 165 774 q 144 767 156 767 q 119 776 129 767 q 110 800 110 786 q 122 829 110 814 l 235 944 m 150 686 q 187 672 172 686 q 201 636 201 658 l 201 43 q 188 7 201 21 q 151 -7 174 -7 q 114 7 128 -7 q 100 43 100 21 l 100 636 q 114 672 100 658 q 150 686 128 686 z "},"î":{"ha":301,"x_min":-17,"x_max":319,"o":"m 311 810 q 319 790 319 801 q 311 771 319 779 q 292 763 303 763 q 269 772 279 763 l 150 879 l 31 771 q 10 763 22 763 q -9 771 -1 763 q -17 790 -17 779 q -10 808 -17 799 l 108 951 q 126 968 115 961 q 151 975 136 975 q 178 968 167 975 q 196 951 189 961 l 311 810 m 150 686 q 187 672 172 686 q 201 636 201 658 l 201 43 q 188 7 201 21 q 151 -7 174 -7 q 114 7 128 -7 q 100 43 100 21 l 100 636 q 114 672 100 658 q 150 686 128 686 z "},"ï":{"ha":301,"x_min":11,"x_max":290,"o":"m 11 843 q 29 885 11 868 q 74 903 47 903 q 115 885 99 903 q 132 843 132 868 q 115 799 132 817 q 74 781 99 781 q 29 799 47 781 q 11 843 11 817 m 169 843 q 188 885 169 868 q 231 903 206 903 q 273 885 256 903 q 290 843 290 868 q 273 799 290 817 q 231 781 256 781 q 188 799 206 781 q 169 843 169 817 m 150 686 q 187 672 172 686 q 201 636 201 658 l 201 43 q 188 7 201 21 q 151 -7 174 -7 q 114 7 128 -7 q 100 43 100 21 l 100 636 q 114 672 100 658 q 150 686 128 686 z "},"ð":{"ha":686,"x_min":76,"x_max":596,"o":"m 510 818 q 574 690 553 760 q 594 519 594 619 l 594 250 q 576 140 594 189 q 523 57 557 92 q 441 4 489 22 q 336 -14 393 -14 q 231 4 278 -14 q 149 57 183 22 q 95 140 114 92 q 76 250 76 189 l 76 429 q 94 539 76 490 q 144 622 111 588 q 222 675 176 657 q 322 693 267 693 q 424 669 381 693 q 494 601 467 646 q 483 663 490 636 q 467 713 476 690 q 447 753 458 735 q 422 790 436 772 l 321 758 q 306 756 310 756 q 275 786 275 756 q 281 805 275 796 q 299 818 286 814 l 378 843 q 360 864 369 854 q 340 886 351 874 q 331 911 331 896 q 342 941 331 929 q 371 953 354 953 q 390 948 382 953 q 404 936 397 943 l 467 871 l 550 899 q 565 901 558 901 q 596 871 596 901 q 590 852 596 861 q 572 839 585 843 l 510 818 m 178 242 q 219 122 178 169 q 336 74 260 74 q 452 122 411 74 q 493 242 493 169 l 493 436 q 452 556 493 508 q 336 604 411 604 q 219 556 260 604 q 178 436 178 508 l 178 242 z "},"ñ":{"ha":707,"x_min":100,"x_max":613,"o":"m 193 599 q 271 668 224 643 q 379 693 318 693 q 552 626 492 693 q 613 444 613 558 l 613 43 q 599 7 613 21 q 561 -7 585 -7 q 525 7 539 -7 q 511 43 511 21 l 511 446 q 473 557 511 511 q 361 603 435 603 q 244 554 286 603 q 201 435 201 506 l 201 43 q 188 7 201 21 q 151 -7 174 -7 q 114 7 128 -7 q 100 43 100 21 l 100 640 q 111 674 100 661 q 143 686 122 686 q 170 678 158 686 q 185 650 182 669 l 193 599 m 507 903 q 535 925 510 925 q 567 883 567 925 q 542 805 567 838 q 468 772 518 772 q 423 781 444 772 q 379 801 401 790 l 324 832 q 297 845 311 839 q 268 851 282 851 q 240 843 250 851 q 223 824 229 835 q 215 803 217 814 q 211 786 213 792 q 201 772 208 778 q 182 765 193 765 q 158 776 167 765 q 149 807 149 788 q 180 890 149 856 q 264 924 211 924 q 344 900 301 924 l 401 868 q 433 851 417 858 q 464 844 450 844 q 497 863 489 844 q 507 903 504 881 z "},"ò":{"ha":671,"x_min":76,"x_max":594,"o":"m 178 242 q 219 122 178 169 q 335 74 260 74 q 451 122 410 74 q 492 242 492 169 l 492 436 q 451 556 492 508 q 335 604 410 604 q 219 556 260 604 q 178 436 178 508 l 178 242 m 594 250 q 576 140 594 189 q 522 57 557 92 q 440 4 488 22 q 335 -14 393 -14 q 229 4 276 -14 q 148 57 182 22 q 95 140 114 92 q 76 250 76 189 l 76 429 q 95 539 76 490 q 148 622 114 588 q 229 675 182 657 q 335 693 276 693 q 440 675 393 693 q 522 622 488 657 q 576 539 557 588 q 594 429 594 490 l 594 250 m 363 829 q 375 800 375 814 q 365 776 375 786 q 340 767 356 767 q 319 774 329 767 l 186 876 q 169 913 169 893 q 183 947 169 933 q 215 960 196 960 q 250 944 235 960 l 363 829 z "},"ó":{"ha":671,"x_min":76,"x_max":594,"o":"m 419 944 q 454 960 435 960 q 487 947 474 960 q 500 913 500 933 q 483 876 500 893 l 350 774 q 329 767 340 767 q 304 776 314 767 q 294 800 294 786 q 307 829 294 814 l 419 944 m 178 242 q 219 122 178 169 q 335 74 260 74 q 451 122 410 74 q 492 242 492 169 l 492 436 q 451 556 492 508 q 335 604 410 604 q 219 556 260 604 q 178 436 178 508 l 178 242 m 594 250 q 576 140 594 189 q 522 57 557 92 q 440 4 488 22 q 335 -14 393 -14 q 229 4 276 -14 q 148 57 182 22 q 95 140 114 92 q 76 250 76 189 l 76 429 q 95 539 76 490 q 148 622 114 588 q 229 675 182 657 q 335 693 276 693 q 440 675 393 693 q 522 622 488 657 q 576 539 557 588 q 594 429 594 490 l 594 250 z "},"ô":{"ha":671,"x_min":76,"x_max":594,"o":"m 494 810 q 503 790 503 801 q 494 771 503 779 q 475 763 486 763 q 453 772 463 763 l 333 879 l 214 771 q 193 763 206 763 q 174 771 182 763 q 167 790 167 779 q 174 808 167 799 l 292 951 q 309 968 299 961 q 335 975 319 975 q 361 968 350 975 q 379 951 372 961 l 494 810 m 178 242 q 219 122 178 169 q 335 74 260 74 q 451 122 410 74 q 492 242 492 169 l 492 436 q 451 556 492 508 q 335 604 410 604 q 219 556 260 604 q 178 436 178 508 l 178 242 m 594 250 q 576 140 594 189 q 522 57 557 92 q 440 4 488 22 q 335 -14 393 -14 q 229 4 276 -14 q 148 57 182 22 q 95 140 114 92 q 76 250 76 189 l 76 429 q 95 539 76 490 q 148 622 114 588 q 229 675 182 657 q 335 693 276 693 q 440 675 393 693 q 522 622 488 657 q 576 539 557 588 q 594 429 594 490 l 594 250 z "},"õ":{"ha":671,"x_min":76,"x_max":594,"o":"m 178 242 q 219 122 178 169 q 335 74 260 74 q 451 122 410 74 q 492 242 492 169 l 492 436 q 451 556 492 508 q 335 604 410 604 q 219 556 260 604 q 178 436 178 508 l 178 242 m 594 250 q 576 140 594 189 q 522 57 557 92 q 440 4 488 22 q 335 -14 393 -14 q 229 4 276 -14 q 148 57 182 22 q 95 140 114 92 q 76 250 76 189 l 76 429 q 95 539 76 490 q 148 622 114 588 q 229 675 182 657 q 335 693 276 693 q 440 675 393 693 q 522 622 488 657 q 576 539 557 588 q 594 429 594 490 l 594 250 m 483 903 q 511 925 486 925 q 543 883 543 925 q 519 805 543 838 q 444 772 494 772 q 399 781 421 772 q 356 801 378 790 l 300 832 q 273 845 288 839 q 244 851 258 851 q 216 843 226 851 q 199 824 206 835 q 191 803 193 814 q 188 786 189 792 q 177 772 185 778 q 158 765 169 765 q 134 776 143 765 q 125 807 125 788 q 156 890 125 856 q 240 924 188 924 q 321 900 278 924 l 378 868 q 410 851 393 858 q 440 844 426 844 q 473 863 465 844 q 483 903 481 881 z "},"ö":{"ha":671,"x_min":76,"x_max":594,"o":"m 194 843 q 213 885 194 868 q 257 903 231 903 q 299 885 282 903 q 315 843 315 868 q 299 799 315 817 q 257 781 282 781 q 213 799 231 781 q 194 843 194 817 m 353 843 q 371 885 353 868 q 414 903 389 903 q 456 885 439 903 q 474 843 474 868 q 456 799 474 817 q 414 781 439 781 q 371 799 389 781 q 353 843 353 817 m 178 242 q 219 122 178 169 q 335 74 260 74 q 451 122 410 74 q 492 242 492 169 l 492 436 q 451 556 492 508 q 335 604 410 604 q 219 556 260 604 q 178 436 178 508 l 178 242 m 594 250 q 576 140 594 189 q 522 57 557 92 q 440 4 488 22 q 335 -14 393 -14 q 229 4 276 -14 q 148 57 182 22 q 95 140 114 92 q 76 250 76 189 l 76 429 q 95 539 76 490 q 148 622 114 588 q 229 675 182 657 q 335 693 276 693 q 440 675 393 693 q 522 622 488 657 q 576 539 557 588 q 594 429 594 490 l 594 250 z "},"÷":{"ha":703,"x_min":79,"x_max":622,"o":"m 79 456 q 91 488 79 475 q 122 500 103 500 l 581 500 q 611 488 600 500 q 622 456 622 475 q 611 424 622 436 q 581 411 600 411 l 122 411 q 91 424 103 411 q 79 456 79 436 m 285 239 q 304 286 285 267 q 350 306 324 306 q 397 286 378 306 q 415 239 415 267 q 397 193 415 213 q 350 174 378 174 q 304 193 324 174 q 285 239 285 213 m 285 674 q 304 719 285 700 q 350 739 324 739 q 397 719 378 739 q 415 674 415 700 q 397 626 415 646 q 350 607 378 607 q 304 626 324 607 q 285 674 285 646 z "},"ø":{"ha":671,"x_min":76,"x_max":594,"o":"m 594 250 q 576 140 594 189 q 522 57 557 92 q 440 4 488 22 q 335 -14 393 -14 q 201 17 260 -14 l 165 -53 q 153 -69 160 -62 q 133 -75 147 -75 q 109 -66 118 -75 q 100 -44 100 -57 q 106 -25 100 -35 l 149 56 q 95 139 114 90 q 76 250 76 188 l 76 429 q 95 539 76 490 q 148 622 114 588 q 229 675 182 657 q 335 693 276 693 q 468 661 411 693 l 506 732 q 517 748 511 742 q 539 754 524 754 q 563 745 554 754 q 571 724 571 736 q 565 704 571 718 l 522 622 q 576 539 557 588 q 594 429 594 490 l 594 250 m 176 240 q 199 146 176 185 l 429 579 q 335 607 390 607 q 217 559 258 607 q 176 439 176 511 l 176 240 m 494 439 q 472 532 494 490 l 242 99 q 335 72 281 72 q 453 120 413 72 q 494 240 494 168 l 494 439 z "},"ù":{"ha":699,"x_min":94,"x_max":599,"o":"m 506 78 q 428 10 475 35 q 321 -14 381 -14 q 153 52 213 -14 q 94 229 94 118 l 94 635 q 108 672 94 658 q 144 686 121 686 q 182 672 168 686 q 196 635 196 658 l 196 229 q 232 120 196 164 q 339 76 268 76 q 456 124 414 76 q 497 243 497 172 l 497 635 q 511 672 497 658 q 547 686 525 686 q 585 672 571 686 q 599 635 599 658 l 599 39 q 556 -7 599 -7 q 528 1 540 -7 q 514 29 517 10 l 506 78 m 375 829 q 388 800 388 814 q 378 776 388 786 q 353 767 368 767 q 332 774 342 767 l 199 876 q 182 913 182 893 q 195 947 182 933 q 228 960 208 960 q 263 944 247 960 l 375 829 z "},"ú":{"ha":699,"x_min":94,"x_max":599,"o":"m 432 944 q 467 960 447 960 q 499 947 486 960 q 513 913 513 933 q 496 876 513 893 l 363 774 q 342 767 353 767 q 317 776 326 767 q 307 800 307 786 q 319 829 307 814 l 432 944 m 506 78 q 428 10 475 35 q 321 -14 381 -14 q 153 52 213 -14 q 94 229 94 118 l 94 635 q 108 672 94 658 q 144 686 121 686 q 182 672 168 686 q 196 635 196 658 l 196 229 q 232 120 196 164 q 339 76 268 76 q 456 124 414 76 q 497 243 497 172 l 497 635 q 511 672 497 658 q 547 686 525 686 q 585 672 571 686 q 599 635 599 658 l 599 39 q 556 -7 599 -7 q 528 1 540 -7 q 514 29 517 10 l 506 78 z "},"û":{"ha":699,"x_min":94,"x_max":599,"o":"m 506 810 q 514 790 514 801 q 506 771 514 779 q 486 763 497 763 q 464 772 474 763 l 344 879 l 225 771 q 204 763 217 763 q 185 771 193 763 q 178 790 178 779 q 185 808 178 799 l 303 951 q 320 968 310 961 q 346 975 331 975 q 372 968 361 975 q 390 951 383 961 l 506 810 m 506 78 q 428 10 475 35 q 321 -14 381 -14 q 153 52 213 -14 q 94 229 94 118 l 94 635 q 108 672 94 658 q 144 686 121 686 q 182 672 168 686 q 196 635 196 658 l 196 229 q 232 120 196 164 q 339 76 268 76 q 456 124 414 76 q 497 243 497 172 l 497 635 q 511 672 497 658 q 547 686 525 686 q 585 672 571 686 q 599 635 599 658 l 599 39 q 556 -7 599 -7 q 528 1 540 -7 q 514 29 517 10 l 506 78 z "},"ü":{"ha":699,"x_min":94,"x_max":599,"o":"m 207 843 q 225 885 207 868 q 269 903 243 903 q 311 885 294 903 q 328 843 328 868 q 311 799 328 817 q 269 781 294 781 q 225 799 243 781 q 207 843 207 817 m 365 843 q 383 885 365 868 q 426 903 401 903 q 469 885 451 903 q 486 843 486 868 q 469 799 486 817 q 426 781 451 781 q 383 799 401 781 q 365 843 365 817 m 506 78 q 428 10 475 35 q 321 -14 381 -14 q 153 52 213 -14 q 94 229 94 118 l 94 635 q 108 672 94 658 q 144 686 121 686 q 182 672 168 686 q 196 635 196 658 l 196 229 q 232 120 196 164 q 339 76 268 76 q 456 124 414 76 q 497 243 497 172 l 497 635 q 511 672 497 658 q 547 686 525 686 q 585 672 571 686 q 599 635 599 658 l 599 39 q 556 -7 599 -7 q 528 1 540 -7 q 514 29 517 10 l 506 78 z "},"ý":{"ha":635,"x_min":42,"x_max":596,"o":"m 285 -232 q 267 -257 279 -247 q 240 -267 256 -267 q 203 -249 217 -267 q 197 -207 190 -231 l 272 -3 l 49 615 q 53 661 42 636 q 96 686 65 686 q 146 650 135 686 l 321 138 l 496 651 q 540 686 506 686 q 581 665 567 686 q 588 619 596 644 l 285 -232 m 404 944 q 439 960 419 960 q 472 947 458 960 q 485 913 485 933 q 468 876 485 893 l 335 774 q 314 767 325 767 q 289 776 299 767 q 279 800 279 786 q 292 829 279 814 l 404 944 z "},"þ":{"ha":692,"x_min":100,"x_max":613,"o":"m 201 611 q 276 672 231 650 q 378 693 321 693 q 551 625 489 693 q 613 442 613 557 l 613 238 q 551 54 613 122 q 378 -14 489 -14 q 276 7 321 -14 q 201 67 231 28 l 201 -217 q 187 -253 201 -239 q 150 -267 172 -267 q 114 -253 128 -267 q 100 -217 100 -239 l 100 897 q 114 933 100 919 q 150 947 128 947 q 188 933 174 947 q 201 897 201 919 l 201 611 m 361 603 q 244 554 286 603 q 201 435 201 506 l 201 243 q 244 124 201 172 q 361 76 286 76 q 474 122 436 76 q 511 233 511 167 l 511 446 q 473 557 511 511 q 361 603 435 603 z "},"ÿ":{"ha":635,"x_min":42,"x_max":596,"o":"m 285 -232 q 267 -257 279 -247 q 240 -267 256 -267 q 203 -249 217 -267 q 197 -207 190 -231 l 272 -3 l 49 615 q 53 661 42 636 q 96 686 65 686 q 146 650 135 686 l 321 138 l 496 651 q 540 686 506 686 q 581 665 567 686 q 588 619 596 644 l 285 -232 m 179 843 q 197 885 179 868 q 242 903 215 903 q 283 885 267 903 q 300 843 300 868 q 283 799 300 817 q 242 781 267 781 q 197 799 215 781 q 179 843 179 817 m 338 843 q 356 885 338 868 q 399 903 374 903 q 441 885 424 903 q 458 843 458 868 q 441 799 458 817 q 399 781 424 781 q 356 799 374 781 q 338 843 338 817 z "},"ı":{"ha":301,"x_min":100,"x_max":201,"o":"m 150 686 q 187 672 172 686 q 201 636 201 658 l 201 43 q 188 7 201 21 q 151 -7 174 -7 q 114 7 128 -7 q 100 43 100 21 l 100 636 q 114 672 100 658 q 150 686 128 686 z "},"Œ":{"ha":1186,"x_min":90,"x_max":1126,"o":"m 690 514 l 1035 514 q 1069 500 1057 514 q 1082 465 1082 486 q 1069 432 1082 444 q 1035 419 1057 419 l 690 419 l 690 96 l 1081 96 q 1114 82 1101 96 q 1126 47 1126 68 q 1114 13 1126 26 q 1081 0 1101 0 l 633 0 q 601 10 614 0 q 588 38 588 21 l 588 65 q 499 7 551 28 q 385 -14 447 -14 q 265 6 319 -14 q 172 65 211 26 q 112 157 133 103 q 90 278 90 211 l 90 635 q 111 756 90 701 q 170 848 132 810 q 263 906 208 886 q 385 926 317 926 q 499 906 447 926 q 588 846 551 885 l 588 874 q 601 902 588 892 q 633 913 614 913 l 1068 913 q 1102 899 1089 913 q 1115 865 1115 886 q 1102 830 1115 843 q 1068 817 1089 817 l 690 817 l 690 514 m 196 275 q 247 137 196 192 q 390 82 297 82 q 533 135 482 82 q 583 268 583 188 l 583 638 q 533 776 583 721 q 390 831 483 831 q 247 776 297 831 q 196 638 196 721 l 196 275 z "},"œ":{"ha":1075,"x_min":76,"x_max":1003,"o":"m 956 233 q 990 217 978 233 q 999 178 1001 201 q 922 38 988 90 q 751 -14 856 -14 q 624 17 679 -14 q 542 107 569 49 q 460 17 514 49 q 335 -14 406 -14 q 229 4 276 -14 q 148 57 182 22 q 95 140 114 92 q 76 250 76 189 l 76 429 q 95 539 76 490 q 148 622 114 588 q 229 675 182 657 q 335 693 276 693 q 460 660 407 693 q 543 568 514 628 q 625 660 571 628 q 750 693 679 693 q 852 675 806 693 q 932 622 899 657 q 984 539 965 588 q 1003 429 1003 490 l 1003 376 q 989 340 1003 353 q 953 326 975 326 l 593 326 l 593 229 q 635 115 593 161 q 753 69 676 69 q 865 108 828 69 q 911 196 901 146 q 925 223 914 213 q 956 233 936 233 m 178 242 q 219 122 178 169 q 335 74 260 74 q 451 122 410 74 q 492 242 492 169 l 492 436 q 451 556 492 508 q 335 604 410 604 q 219 556 260 604 q 178 436 178 508 l 178 242 m 593 406 l 907 406 l 907 439 q 866 561 907 513 q 750 610 825 610 q 634 561 675 610 q 593 439 593 513 l 593 406 z "},"Š":{"ha":729,"x_min":65,"x_max":661,"o":"m 592 639 q 559 650 572 639 q 543 681 546 661 q 489 794 533 751 q 363 838 444 838 q 233 799 279 838 q 186 700 186 761 q 216 618 186 651 q 290 567 246 585 l 440 506 q 519 471 479 490 q 590 422 558 451 q 641 351 621 393 q 661 251 661 310 q 640 142 661 190 q 578 58 618 93 q 485 5 539 24 q 364 -14 431 -14 q 159 46 238 -14 q 68 215 81 106 q 78 257 65 239 q 118 275 90 275 q 167 232 163 275 q 222 119 174 163 q 363 76 271 76 q 506 122 456 76 q 557 239 557 168 q 544 303 557 276 q 511 349 532 329 q 462 383 490 368 q 401 410 433 397 l 272 463 q 199 498 233 478 q 140 546 165 518 q 99 610 114 574 q 85 692 85 646 q 105 786 85 743 q 161 860 125 829 q 249 909 197 892 q 363 926 300 926 q 556 866 481 926 q 642 699 632 806 q 631 657 644 675 q 592 639 617 639 m 203 1118 q 194 1138 194 1126 q 203 1157 194 1149 q 224 1165 213 1165 q 246 1156 236 1165 l 365 1049 l 485 1157 q 504 1165 493 1165 q 524 1158 515 1165 q 532 1139 532 1150 q 525 1119 532 1129 l 407 976 q 390 960 400 967 q 364 953 379 953 q 338 960 349 953 q 319 976 326 967 l 203 1118 z "},"š":{"ha":622,"x_min":58,"x_max":556,"o":"m 147 919 q 139 939 139 929 q 148 958 139 950 q 168 967 157 967 q 190 957 181 967 l 310 850 l 429 958 q 449 967 438 967 q 468 959 460 967 q 476 940 476 951 q 469 921 476 931 l 351 779 q 334 761 344 768 q 308 754 324 754 q 282 761 293 754 q 264 779 271 768 l 147 919 m 236 325 q 178 349 207 335 q 128 383 150 363 q 92 433 106 404 q 79 503 79 463 q 96 576 79 542 q 143 636 113 610 q 216 678 174 663 q 310 693 258 693 q 470 650 408 693 q 546 536 532 607 q 540 495 550 514 q 504 476 529 476 q 458 514 469 476 q 412 583 446 554 q 311 613 378 613 q 262 606 286 613 q 218 588 238 600 q 187 556 199 575 q 175 511 175 538 q 194 456 175 476 q 257 421 214 435 l 372 385 q 443 358 410 372 q 501 321 476 343 q 541 268 526 299 q 556 193 556 238 q 538 109 556 147 q 490 44 521 71 q 413 1 458 17 q 313 -14 368 -14 q 140 33 208 -14 q 61 164 71 81 q 70 201 58 183 q 106 218 82 218 q 149 182 142 218 q 196 102 158 136 q 311 68 233 68 q 420 100 383 68 q 457 182 457 132 q 436 247 457 224 q 367 285 415 269 l 236 325 z "},"Ÿ":{"ha":678,"x_min":44,"x_max":638,"o":"m 392 364 l 392 44 q 377 7 392 21 q 339 -7 363 -7 q 301 7 315 -7 q 286 44 286 21 l 286 364 l 50 844 q 44 868 44 854 q 59 904 44 889 q 94 919 74 919 q 140 892 126 919 l 342 468 l 546 893 q 564 914 553 908 q 589 919 575 919 q 622 906 608 919 q 636 876 636 893 q 635 861 638 869 q 629 846 632 853 l 392 364 m 200 1058 q 218 1101 200 1083 q 263 1118 236 1118 q 304 1101 288 1118 q 321 1058 321 1083 q 304 1014 321 1032 q 263 996 288 996 q 218 1014 236 996 q 200 1058 200 1032 m 358 1058 q 376 1101 358 1083 q 419 1118 394 1118 q 462 1101 444 1118 q 479 1058 479 1083 q 462 1014 479 1032 q 419 996 444 996 q 376 1014 394 996 q 358 1058 358 1032 z "},"Ž":{"ha":644,"x_min":47,"x_max":603,"o":"m 539 913 q 572 901 558 913 q 586 871 586 890 q 580 843 586 857 q 567 817 574 829 l 179 94 l 557 94 q 590 81 578 94 q 603 47 603 68 q 590 13 603 25 q 557 0 578 0 l 93 0 q 60 11 74 0 q 47 42 47 22 q 53 70 47 56 q 65 96 58 85 l 453 818 l 106 818 q 72 831 85 818 q 58 865 58 843 q 72 899 58 886 q 106 913 85 913 l 539 913 m 168 1118 q 160 1138 160 1126 q 169 1157 160 1149 q 189 1165 178 1165 q 211 1156 201 1165 l 331 1049 l 450 1157 q 469 1165 458 1165 q 489 1158 481 1165 q 497 1139 497 1150 q 490 1119 497 1129 l 372 976 q 355 960 365 967 q 329 953 344 953 q 303 960 314 953 q 285 976 292 967 l 168 1118 z "},"ž":{"ha":596,"x_min":50,"x_max":549,"o":"m 138 919 q 129 939 129 929 q 138 958 129 950 q 158 967 147 967 q 181 957 171 967 l 300 850 l 419 958 q 439 967 428 967 q 458 959 450 967 q 467 940 467 951 q 460 921 467 931 l 342 779 q 324 761 335 768 q 299 754 314 754 q 272 761 283 754 q 254 779 261 768 l 138 919 m 176 85 l 508 85 q 538 72 526 85 q 549 42 549 60 q 538 11 549 22 q 508 0 526 0 l 93 0 q 50 39 50 0 q 56 65 50 54 q 68 88 61 75 l 410 593 l 97 593 q 67 605 78 593 q 56 636 56 617 q 67 667 56 654 q 97 679 78 679 l 494 679 q 536 640 536 679 q 531 614 536 625 q 518 592 525 603 l 176 85 z "},"ƒ":{"ha":574,"x_min":38,"x_max":522,"o":"m 113 468 q 124 499 113 488 q 154 511 135 511 l 229 511 l 229 701 q 288 874 229 814 q 454 933 346 933 l 479 933 q 510 921 499 933 q 522 889 522 908 q 479 846 522 846 l 454 846 q 358 807 385 846 q 331 708 331 768 l 331 511 l 472 511 q 503 499 492 511 q 514 468 514 488 q 503 437 514 449 q 472 425 492 425 l 331 425 l 331 -28 q 273 -200 331 -140 q 106 -260 215 -260 l 81 -260 q 49 -247 61 -260 q 38 -215 38 -235 q 49 -184 38 -196 q 81 -172 61 -172 l 106 -172 q 202 -133 175 -172 q 229 -35 229 -94 l 229 425 l 154 425 q 124 437 135 425 q 113 468 113 449 z "},"ȷ":{"ha":301,"x_min":-89,"x_max":201,"o":"m -40 -186 q 65 -144 31 -183 q 100 -35 100 -104 l 100 635 q 113 672 100 658 q 150 686 126 686 q 188 672 174 686 q 201 635 201 658 l 201 -28 q 136 -212 201 -150 q -37 -274 71 -274 q -75 -263 -61 -274 q -89 -229 -89 -253 q -40 -186 -89 -189 z "},"ˆ":{"ha":397,"x_min":31,"x_max":367,"o":"m 358 810 q 367 790 367 801 q 358 771 367 779 q 339 763 350 763 q 317 772 326 763 l 197 879 l 78 771 q 57 763 69 763 q 38 771 46 763 q 31 790 31 779 q 38 808 31 799 l 156 951 q 173 968 163 961 q 199 975 183 975 q 225 968 214 975 q 243 951 236 961 l 358 810 l 358 810 z "},"˜":{"ha":474,"x_min":28,"x_max":446,"o":"m 386 903 q 414 925 389 925 q 446 883 446 925 q 422 805 446 838 q 347 772 397 772 q 302 781 324 772 q 258 801 281 790 l 203 832 q 176 845 190 839 q 147 851 161 851 q 119 843 129 851 q 102 824 108 835 q 94 803 96 814 q 90 786 92 792 q 80 772 88 778 q 61 765 72 765 q 37 776 46 765 q 28 807 28 788 q 59 890 28 856 q 143 924 90 924 q 224 900 181 924 l 281 868 q 313 851 296 858 q 343 844 329 844 q 376 863 368 844 q 386 903 383 881 z "},"–":{"ha":710,"x_min":88,"x_max":622,"o":"m 88 365 q 98 394 88 383 q 126 406 108 406 l 583 406 q 612 394 601 406 q 622 365 622 383 q 612 336 622 347 q 583 325 601 325 l 126 325 q 98 336 108 325 q 88 365 88 347 z "},"—":{"ha":1106,"x_min":88,"x_max":1017,"o":"m 88 365 q 98 394 88 383 q 126 406 108 406 l 978 406 q 1006 394 996 406 q 1017 365 1017 383 q 1006 336 1017 347 q 978 325 996 325 l 126 325 q 98 336 108 325 q 88 365 88 347 z "},"‘":{"ha":304,"x_min":78,"x_max":235,"o":"m 156 889 q 171 912 163 904 q 194 919 179 919 q 224 906 214 919 q 229 871 235 893 l 190 707 q 172 669 185 683 q 135 654 158 654 q 107 660 119 654 q 87 677 94 667 q 78 703 79 688 q 86 736 78 718 l 156 889 z "},"’":{"ha":303,"x_min":74,"x_max":240,"o":"m 153 685 q 138 662 146 669 q 115 654 131 654 q 85 667 96 654 q 79 701 74 681 l 118 865 q 138 904 125 889 q 175 919 150 919 q 222 896 203 919 q 224 838 240 872 l 153 685 z "},"‚":{"ha":308,"x_min":56,"x_max":221,"o":"m 135 -108 q 119 -131 128 -124 q 96 -139 111 -139 q 66 -126 76 -139 q 60 -92 56 -112 l 99 72 q 119 111 106 96 q 156 126 132 126 q 203 103 185 126 q 204 44 221 81 l 135 -108 z "},"“":{"ha":474,"x_min":67,"x_max":406,"o":"m 326 889 q 342 912 333 904 q 365 919 350 919 q 395 906 385 919 q 400 871 406 893 l 363 707 q 342 669 356 683 q 306 654 329 654 q 258 677 276 654 q 257 736 240 700 l 326 889 m 153 889 q 168 912 160 904 q 192 919 176 919 q 222 906 211 919 q 228 871 233 893 l 189 707 q 169 669 182 683 q 132 654 156 654 q 85 677 103 654 q 83 736 67 700 l 153 889 z "},"”":{"ha":472,"x_min":72,"x_max":411,"o":"m 151 685 q 136 662 144 669 q 113 654 128 654 q 83 667 93 654 q 78 701 72 681 l 115 865 q 135 904 122 889 q 172 919 149 919 q 219 897 201 919 q 221 838 238 874 l 151 685 m 325 685 q 310 662 318 669 q 286 654 301 654 q 256 667 267 654 q 250 701 244 681 l 289 865 q 309 904 296 889 q 346 919 322 919 q 393 897 375 919 q 394 838 411 874 l 325 685 z "},"„":{"ha":479,"x_min":56,"x_max":394,"o":"m 135 -108 q 120 -131 128 -124 q 97 -139 113 -139 q 67 -126 78 -139 q 61 -92 56 -112 l 100 72 q 119 111 107 96 q 157 126 132 126 q 203 103 185 126 q 206 44 222 79 l 135 -108 m 308 -108 q 293 -131 301 -124 q 269 -139 285 -139 q 240 -126 250 -139 q 235 -92 229 -112 l 272 72 q 292 111 279 96 q 329 126 306 126 q 376 103 358 126 q 378 44 394 81 l 308 -108 z "},"†":{"ha":532,"x_min":42,"x_max":492,"o":"m 303 679 l 457 679 q 482 669 472 679 q 492 643 492 658 q 457 608 492 608 l 296 608 l 317 -7 l 317 -112 q 302 -148 317 -135 q 267 -161 288 -161 q 231 -148 244 -161 q 217 -112 217 -135 l 217 -7 l 235 608 l 76 608 q 42 643 42 608 q 51 669 42 658 q 76 679 61 679 l 228 679 l 217 765 l 217 871 q 231 906 217 893 q 267 919 244 919 q 302 906 288 919 q 317 871 317 893 l 317 765 l 303 679 z "},"‡":{"ha":579,"x_min":65,"x_max":514,"o":"m 335 679 l 481 679 q 505 669 496 679 q 514 644 514 660 q 505 619 514 629 q 481 608 496 608 l 331 608 l 319 379 l 331 150 l 481 150 q 505 140 496 150 q 514 115 514 131 q 505 90 514 100 q 481 79 496 79 l 335 79 l 339 -7 l 339 -112 q 325 -148 339 -135 q 290 -161 311 -161 q 254 -148 268 -161 q 240 -112 240 -135 l 240 -7 l 243 79 l 99 79 q 74 90 83 79 q 65 115 65 100 q 99 150 65 150 l 249 150 l 260 379 l 249 608 l 99 608 q 74 619 83 608 q 65 644 65 629 q 74 669 65 660 q 99 679 83 679 l 243 679 l 240 765 l 240 871 q 254 906 240 893 q 290 919 268 919 q 325 906 311 919 q 339 871 339 893 l 339 765 l 335 679 z "},"•":{"ha":471,"x_min":108,"x_max":363,"o":"m 108 381 q 118 431 108 407 q 145 472 128 454 q 185 499 163 489 q 235 510 208 510 q 285 499 261 510 q 326 472 308 489 q 353 431 343 454 q 363 381 363 407 q 353 333 363 356 q 326 292 343 310 q 285 265 308 275 q 235 254 261 254 q 185 265 208 254 q 145 292 163 275 q 118 333 128 310 q 108 381 108 356 z "},"…":{"ha":825,"x_min":83,"x_max":742,"o":"m 83 53 q 103 101 83 82 q 150 121 122 121 q 199 101 179 121 q 218 53 218 82 q 199 6 218 25 q 150 -14 179 -14 q 103 6 122 -14 q 83 53 83 25 m 344 53 q 365 101 344 82 q 413 121 385 121 q 460 101 440 121 q 479 53 479 82 q 460 6 479 25 q 413 -14 440 -14 q 365 6 385 -14 q 344 53 344 25 m 607 53 q 626 101 607 82 q 674 121 646 121 q 722 101 701 121 q 742 53 742 82 q 722 6 742 25 q 674 -14 701 -14 q 626 6 646 -14 q 607 53 607 25 z "},"‰":{"ha":1249,"x_min":72,"x_max":1185,"o":"m 149 607 q 169 547 149 571 q 231 522 190 522 q 290 547 269 522 q 311 607 311 571 l 311 775 q 290 835 311 811 q 231 860 269 860 q 169 835 190 860 q 149 775 149 811 l 149 607 m 388 608 q 344 497 388 539 q 231 456 301 456 q 115 497 157 456 q 72 608 72 539 l 72 774 q 115 885 72 843 q 231 926 157 926 q 344 885 301 926 q 388 774 388 843 l 388 608 m 561 138 q 582 77 561 101 q 642 53 603 53 q 702 77 682 53 q 722 138 722 101 l 722 306 q 702 366 722 342 q 642 390 682 390 q 582 366 603 390 q 561 306 561 342 l 561 138 m 800 139 q 757 28 800 69 q 642 -14 714 -14 q 526 28 568 -14 q 483 139 483 69 l 483 304 q 526 415 483 374 q 642 457 568 457 q 757 415 714 457 q 800 304 800 374 l 800 139 m 946 138 q 967 77 946 101 q 1026 53 988 53 q 1088 77 1067 53 q 1108 138 1108 101 l 1108 306 q 1088 366 1108 342 q 1026 390 1067 390 q 967 366 988 390 q 946 306 946 342 l 946 138 m 1185 139 q 1142 28 1185 69 q 1026 -14 1099 -14 q 912 28 954 -14 q 869 139 869 69 l 869 304 q 912 415 869 374 q 1026 457 954 457 q 1142 415 1099 457 q 1185 304 1185 374 l 1185 139 m 478 456 l 218 11 q 185 -7 207 -7 q 156 4 168 -7 q 144 32 144 15 q 151 53 144 43 l 394 457 l 656 901 q 689 919 667 919 q 716 908 704 919 q 728 881 728 897 q 722 860 728 871 l 478 456 z "},"‹":{"ha":347,"x_min":76,"x_max":258,"o":"m 247 143 q 247 102 258 119 q 211 85 235 85 q 187 92 196 85 q 172 111 178 100 l 89 283 q 81 303 85 293 q 76 324 76 313 q 81 344 76 335 q 89 364 85 354 l 172 536 q 187 555 178 547 q 211 563 196 563 q 246 544 235 563 q 247 504 257 525 l 172 324 l 247 143 z "},"›":{"ha":347,"x_min":89,"x_max":271,"o":"m 175 324 l 100 504 q 101 544 90 525 q 136 563 113 563 q 160 555 151 563 q 175 536 169 547 l 258 364 q 267 344 263 354 q 271 324 271 335 q 267 303 271 313 q 258 283 263 293 l 175 111 q 160 92 169 100 q 136 85 151 85 q 101 102 113 85 q 100 143 89 119 l 175 324 z "},"€":{"ha":807,"x_min":57,"x_max":728,"o":"m 160 635 q 181 756 160 701 q 239 848 201 810 q 331 906 276 886 q 451 926 385 926 q 559 908 510 926 q 644 858 608 890 q 702 780 681 825 q 726 679 724 735 q 715 638 728 656 q 676 621 703 621 q 644 632 657 621 q 629 663 632 643 q 578 788 621 740 q 451 835 535 835 q 310 779 360 835 q 261 638 261 724 l 261 590 l 429 590 q 454 579 444 590 q 464 553 464 568 q 454 527 464 538 q 429 517 444 517 l 261 517 l 261 408 l 429 408 q 454 397 444 408 q 464 371 464 386 q 454 345 464 356 q 429 335 444 335 l 261 335 l 261 275 q 310 133 261 189 q 451 78 360 78 q 580 127 535 78 q 629 254 625 176 q 644 288 631 276 q 678 300 657 300 q 715 283 701 300 q 726 242 728 265 q 702 135 724 182 q 644 54 681 88 q 559 3 608 21 q 451 -14 510 -14 q 333 6 386 -14 q 241 65 279 26 q 181 157 203 103 q 160 278 160 211 l 160 335 l 93 335 q 67 345 76 335 q 57 371 57 356 q 67 397 57 386 q 93 408 76 408 l 160 408 l 160 517 l 93 517 q 67 527 76 517 q 57 553 57 538 q 67 579 57 568 q 93 590 76 590 l 160 590 l 160 635 z "},"™":{"ha":1081,"x_min":75,"x_max":975,"o":"m 75 876 q 85 902 75 892 q 110 913 94 913 l 422 913 q 447 902 438 913 q 457 876 457 892 q 422 840 457 840 l 310 840 l 310 433 q 297 405 310 415 q 267 394 285 394 q 236 405 249 394 q 224 433 224 415 l 224 840 l 110 840 q 85 851 94 840 q 75 876 75 861 m 883 888 q 933 918 900 918 q 964 906 953 918 q 975 879 975 894 l 975 432 q 963 405 975 415 q 935 394 950 394 q 906 405 918 394 q 893 432 893 415 l 893 754 l 772 543 q 758 526 765 532 q 736 521 750 521 q 703 543 714 521 l 583 751 l 583 431 q 571 404 583 414 q 543 394 558 394 q 515 404 526 394 q 503 431 503 414 l 503 879 q 514 906 503 894 q 544 918 525 918 q 594 888 578 918 l 739 633 l 883 888 z "}}}
